<svg version="1.2" xmlns="http://www.w3.org/2000/svg" viewBox="0 0 500 500" width="500" height="500">
	<title>8374894_3845622-svg</title>
	<style>
		.s0 { fill: #5a9d4e } 
		.s1 { fill: #81b793 } 
		.s2 { fill: #f9908c } 
		.s3 { fill: #e2817f } 
		.s4 { fill: #08563c } 
		.s5 { fill: #208f60 } 
		.s6 { fill: #ffb3b3 } 
	</style>
	<g id="BACKGROUND">
	</g>
	<g id="OBJECTS">
		<g id="Layer">
			<path id="Layer" fill-rule="evenodd" class="s0" d="m318.5 482.7c-7.2 8.9-18.3 11.7-28.2 16.4-9.2 4.4-19.5 4.7-29.3 6.6-3.7 0.7-7.3 1.5-10.9 2.7-1.8 0.5-4.9 2.7-6.5 2.9-4 0.7-7.6-5.2-10-8-5.2-6-10.1-10.7-12.9-18.2-1.9-4.9-2.2-9.5-3-14.7-0.7-4.4-2.5-8.2-4-12.4-3.7-10.6-5.9-19.6-2-30.7 3.1-9.1 9-17.5 14-25.7 5.2-8.6 11-16.3 19.1-22.5 12.6-9.6 34.1-20.9 47.2-5 7.4 9 3.9 18.1 0 27.6-1.8 4.2-4 14.4 3.1 12.9q0.9-0.1 2-0.6c4-1.7 6.3-6.3 7.6-10.2 1.7-5.3 2.1-12.9 6.2-17.1 12.3-13 28.1-2.9 36.4 9 5.9 8.3 3 18.7 0.5 27.6-1.7 6.4-0.8 12.7-3.5 18.8-2.6 5.7-5.4 11.2-7.8 17-3.5 8.8-12 16.3-18 23.6zm-75.3-76.9c0.5-1.6 0.4-3.4-0.6-4.8-1.2-1.8-3.2-2.1-5.2-1.8-3.3 0.5-6.3 2.5-8 5.3-0.9 1.5-1.4 3.3-0.7 4.8 0.4 1 1.3 1.7 2.3 2.1 4.6 2 10.5-1 12.2-5.6zm5.6 2.6c1.3 1.1 3 1.6 4.7 1.8 2.5 0.4 5 0.3 7.5 1.1 2.3 0.7 4.6 1.9 7.1 1.7 2.8-0.1 5.5-2 6.8-4.6 0.6-1.2 0.9-2.6 0.5-3.8-0.7-2-3-3-4.5-4.1-2.1-1.5-4.1-3-6.4-4-3.2-1.3-7.2-1.2-10.7-0.3-2.2 0.7-4.5 1.9-5.9 4q0 0-0.1 0.1c-1.9 2.8-1.4 6.2 1 8.1zm-6.5 69.4c0.8-2.1 2.5-5.3 0.8-7.4-1.4-1.7-4.1-1.9-6-0.9-3.4 1.7-7.4 6.6-7.9 10.9-0.4 2.6 0.5 5.1 3.4 6.5 2.1 1 5 1.3 6.8-0.5 2.1-2.1 1.8-5.9 2.9-8.6zm22.9-46.5c-2.2-2.9-6.2-3.4-9.6-2.9q-1 0.1-2.1 0.3c-3.3 0.6-6.7 1.4-10 2.2-4.5 1.1-10 2.4-10.1 8.2 0 4.1 3.6 7.4 7.6 7.3 1.8-0.1 3.5-0.5 5.2-0.9 6.2-1.2 14.3 0.8 18.8-4.7 2.1-2.5 2.2-6.8 0.2-9.5zm8.2 51.3c0.5-2 0.7-4.2 0.3-6.3-0.5-2.2-2.1-3.8-4.3-4.5q-0.5-0.2-1.1-0.3-0.6-0.1-1.2 0c-1.4 0.3-2.4 1.5-2.9 2.8-0.7 1.8-0.6 3.7-1.3 5.4-0.6 1.7-1.9 3-2.7 4.6-1.4 2.8-1.2 6 1.1 8.3 1.9 2 5.3 1.5 7.5 0.3 3.7-1.9 3.7-6.7 4.6-10.3zm22.1-23.4c-0.3-2.7-1.3-5.3-1.5-8-0.3-3.6-2.3-6.7-6-7-2.2-0.2-5.3 1.5-6.5 4.1-1.6 3.5 1 5.7 1.6 8.9 0.4 2.2 0.5 4.7 2 6.4 1.6 1.7 4 2.6 6.1 1.5 2.3-1.2 4.5-3.2 4.3-5.9zm8.8 20.6c1.3-3.5-1.1-7.8-4.7-8.3-2.9-0.4-5.5 1.7-6.3 4.4-0.7 1.9-0.7 3.9-0.9 5.8-0.4 3-0.3 5.7 2.9 7.1 1.1 0.4 2.3 0.5 3.4 0.1 3-1.2 4.7-6.3 5.6-9.1zm24.3-30.4c0.7-1.8 0-3.6-0.1-5.6-0.1-2 0.8-3.7 0.9-5.6 0.8-8.2-7.6-13.7-15.5-12.1-3.2 1.2-5.6 3.5-5.8 6.8-0.1 2.9 1.8 5.2 3.1 7.8 1.8 4 2.9 8.8 7.1 11.4 3.7 2.1 8.8 0.9 10.3-2.7z"/>
			<path id="Layer" class="s1" d="m340.1 444.2c-1.1-4.4-0.3-8.9-0.7-13.4-0.3-4.2-1.5-8.4-4.2-11.7-6.6-8-18.9-4.6-27.7-3.7-3 0.3-6 0.5-8.9 0.3-3.9-0.3-9-1.8-11.4-5.1-1.4-1.8-2.4-3.9-3.4-6-2.1-4.1-4.2-8.3-6.8-12.2-4.7-6.9-11.8-12.9-20.5-13.3-4.8-0.1-9.5 1.8-13.2 4.8-0.5 0.4 0.1 1.3 0.6 1.1 3.9-1.7 7.8-3.6 12.1-3.4 4.1 0.2 7.9 2.1 11 4.6 7 5.5 10.5 14 14.5 21.8 1.2 2.3 3 5.5 5.3 7.4-9.8 2.8-20.1 3.4-30.4 2.9-5.8-0.2-11.6-1.1-17.4-1-5.3 0-10.5 1.4-15 4.1-5 3-8.7 7.2-10.6 12.6-0.3 0.9 1 1.3 1.5 0.6 2.5-4.1 6.1-7.8 10.2-10.3 4.4-2.7 9.3-4 14.5-3.9 5.5 0.1 11 1 16.6 1.2 5.5 0.3 11 0.2 16.5-0.3 5-0.4 9.9-1.3 14.7-2.8-6.2 11-12.8 21.7-19.8 32.3q-0.7 1-1.4 2c-13.3-2.9-28.1 1-38.2 10.3-3 2.8-5.5 6-7.5 9.6-0.5 1 0.8 1.7 1.5 0.9 5.2-6.7 12.3-12.3 20.3-15.4 6.9-2.8 14.6-3.6 22-2.7-6.8 9.9-14.1 19.6-18.1 30.9-1.2 3.6-2.2 7.2-3 10.8-0.9 3.7-2 7.6-1.9 11.3 0 0.7 1.1 1.1 1.4 0.3 1.3-3 1.7-6.5 2.5-9.7 0.8-3.2 1.6-6.4 2.6-9.5 2.2-6.6 5.5-12.6 9.3-18.4 3.2-4.7 6.5-9.3 9.8-14 2.8 5.4 7 9.7 10.5 14.6 3.8 5.4 6 11.5 5.1 18.2-0.3 1.8-0.7 3.7-1.3 5.4-0.6 1.7-1.5 3.4-1.9 5.1-0.1 0.2 0.2 0.5 0.5 0.3 2.6-1.8 4-5.3 4.8-8.3 0.9-3.3 1.1-6.8 0.6-10.1-1-7.2-5.2-12.8-9.4-18.4-2.3-3.1-4.7-6.3-6.3-10q0-0.1-0.1-0.3 5.7-8.4 11-17 4.7-7.6 9-15.3c0.3 3.2 0.8 6.4 1.8 9.4 1.8 5.2 5.1 9.5 8.7 13.6 6.5 7.6 15 16.3 13.9 26.9-0.3 3-1.2 5.9-2.4 8.6-1.2 2.6-2.8 5.1-3.6 7.8-0.1 0.3 0.3 0.5 0.5 0.3 2-1.7 3.5-4.1 4.8-6.3 1.3-2.2 2.4-4.6 3.1-7.1 1.3-4.8 0.6-10.1-1.4-14.7-2.1-5-5.4-9.3-8.8-13.4-3.7-4.4-7.9-8.7-10.1-14-2-4.5-2.7-9.3-2.8-14.1 8.2 2.3 16.8 0 25.2-0.8 4.5-0.5 9.8-0.8 13.5 2.3 3.1 2.7 4.6 6.9 5.1 10.8 0.6 4.6-0.3 9.8 2.6 13.8 0.2 0.3 0.7 0.1 0.6-0.3z"/>
		</g>
		<g id="Layer">
			<path id="Layer" class="s2" d="m388.8 429.2q-0.9 3.6-2 7.2-0.8 2.7-1.7 5.4c-6.6 19.9-16.5 38-25.9 56.6-3.5 6.8-7.6 13.4-11.9 17.9q-1.5 1.6-3 2.8c-0.3 0.2-1-1.1-2-3.5q0 0 0 0c-3.5-9.1-10.4-33-10.8-35.3-2.7-15.2-4-30.6-4-46.1q0-4.3 0.2-8.6 0.1-3.4 0.3-6.7c1.1-16.8 3.7-33.5 7.8-49.9q0.6-2.4 1.2-4.8c3.2-12 7.1-23.8 11.7-35.4q0.9-2.3 1.8-4.6c8-19.2 17.7-37.8 28.7-55.3 1 7.8 4.5 16.7 6.5 24.8 2.3 9 4 18 5.2 27.1q0.4 2.8 0.8 5.6c1.1 9.2 1.9 18.4 2.7 27.8q0.4 4.8 0.6 9.7 0.1 2.9 0.2 5.8c0.4 20-1.4 40.1-6.4 59.5z"/>
			<path id="Layer" class="s3" d="m355.2 456.7q-2.7 20.8-5.4 41.5c-0.8 6-1.6 12.1-2.5 18.1q-1.5 1.6-3 2.8c-0.3 0.2-1-1.1-2-3.5q0.1 0 0 0c1.4-8.2 2.4-16.4 3.5-24.7q2.3-17.5 4.6-35.1c-5.8-7.4-11.5-14.8-17-22.4q-2.9-3.9-5.7-7.8 0.1-3.4 0.3-6.7 0.3 0.4 0.6 0.7c2.9 3.8 5.8 7.6 8.7 11.4 4.7 6 9.3 12.1 13.9 18.1q3.1-23.5 6.2-46.9c-5.4-8.1-10.8-16.1-16-24.2q-2.8-4.5-5.6-9 0.6-2.4 1.2-4.8 4 5.8 8 11.6c4.5 6.5 8.9 13 13.3 19.6q0.4-3.2 0.8-6.5 2.5-18.6 5-37.3c-4.2-6.1-8.3-12.2-12.5-18.3q-1.5-2.3-2.9-4.5 0.9-2.3 1.8-4.6c1.6 2.2 3.2 4.4 4.7 6.6q4.9 7.1 9.7 14.2 0.5-3.5 1-7.1c1.2-8.5 2.3-17.1 3.5-25.7 1.2-8.6 2.3-17.2 3.9-25.6 0.4-1.7 3.1-1.4 3 0.3-0.6 9.7-2 19.4-3.2 29.1q-1.7 14.3-3.5 28.6 0 0.1 0 0.2 7.4-8.4 14.9-16.8 3.2-3.6 6.4-7.2 0.4 2.8 0.8 5.6-3.3 3.7-6.5 7.3-8.3 9.4-16.6 18.8-2.7 21.6-5.5 43.3 3.4-3.7 6.8-7.3 10.3-10.8 21.2-21 1.9-1.8 3.9-3.6 0.1 2.9 0.2 5.8-17.3 16.2-33.1 33.8-2.9 21.9-5.7 43.7-0.2 1.7-0.4 3.4 4.7-2.9 9.4-5.8 11.9-7.6 23.4-15.6-0.9 3.6-2 7.2-15.5 10.6-31.6 20.3z"/>
		</g>
		<g id="Layer">
			<path id="Layer" class="s4" d="m390.7 407.6c-0.9-0.4-2-1.8-2.7-2.6q-3.6-3.6-7-7.6c-4.7-5.6-9.2-11.6-12.9-18-4-6.8-8.5-13.2-11.1-20.7-4.1-12.3 0.5-23.8 2.1-35.9 0.2-1.3 1.7-1.9 2.7-1.1 4.9 3.9 10.9 8.2 15.5 11.7 5.5 4.2 9.7 9.3 12.7 15.7 5 10.9 5.8 23.2 6.6 35 0.3 3.9 0.4 7.9 0.3 11.8-0.1 2.6 0.5 5.8-0.5 8.4-0.8 1.9-3.6 4.3-5.7 3.3z"/>
			<path id="Layer" class="s4" d="m389.1 403.1c-0.3-1 0.3-2.7 0.5-3.7q0.9-5.1 2.1-10.1c1.8-7.1 4.1-14.2 7.2-21 3.2-7.2 5.8-14.5 10.4-21 7.6-10.6 19.6-13.5 30.4-19.2 1.2-0.6 2.5 0.3 2.4 1.6-0.2 6.2-0.2 13.6-0.4 19.3-0.3 7-1.9 13.4-5.4 19.5-6 10.4-15.5 18.2-24.6 25.7-3.1 2.5-6.3 4.9-9.5 7.1-2.2 1.5-4.5 3.8-7.1 4.5-2.1 0.5-5.6-0.4-6.1-2.7z"/>
			<path id="Layer" class="s4" d="m388.9 402.6c10.3-5.3 20.6-10.4 31-15.3 6.4-2.9 12.6-6.5 19.3-8.7 7.9-2.6 15.7-3.3 23.1 0.9 4.3 2.4 9 5.7 14 6.5 1.2 0.1 1.6 1.7 0.5 2.4-2.9 2-5.3 4.4-7.5 7.6-8 11.6-20.8 16-34.5 16.7-14.7 0.9-30.2 0-44.8-2.8-3.6-0.7-4.3-5.6-1.1-7.3z"/>
			<path id="Layer" class="s4" d="m384 399.1c11.2 2.4 22.5 5 33.6 8 6.8 1.8 13.8 2.9 20.4 5.5 7.8 3.1 14.2 7.5 17.3 15.5 1.7 4.5 3.3 10.1 6.6 13.8 0.8 0.9 0.1 2.4-1.1 2.3-3.5-0.3-6.9 0-10.7 1-13.5 3.8-26.2-0.9-37.2-9.1-11.9-8.7-23.3-19.2-32.7-30.7-2.4-2.9 0.2-7.1 3.8-6.3z"/>
			<path id="Layer" class="s4" d="m393.6 403c-9.1-7.1-18.3-14.1-27.7-20.8-5.7-4.1-11.1-8.7-17.3-12.1-7.3-4-14.9-6.1-22.9-3.4-4.6 1.6-9.9 4-14.9 3.8-1.3-0.1-1.9 1.4-1 2.3 2.5 2.5 4.4 5.3 6 8.8 5.8 12.9 17.5 19.6 30.8 22.8 14.3 3.6 29.7 5.6 44.6 5.5 3.7 0 5.2-4.7 2.4-6.9z"/>
			<path id="Layer" class="s4" d="m403.9 397.6c-11.4 1.9-22.8 4-34 6.4-6.9 1.5-14 2.4-20.6 4.6-7.9 2.7-14.2 6.7-17 14.1-1.6 4.2-2.9 9.5-6.2 12.9-0.8 0.9 0.1 2.2 1.3 2.2 3.6-0.2 7.1 0.2 10.9 1.3 14.1 4 26.8-0.1 37.7-7.4 11.7-7.9 22.9-17.5 32.1-28.1 2.2-2.6-0.6-6.7-4.2-6z"/>
			<path id="Layer" class="s1" d="m465.1 387.9c-11.9-0.5-24.3 1.3-36 3.8-10.4 2.2-20.7 5-31 7.8 7.2-8.4 14-17.3 20-26.7q5.2-8.3 9.8-16.9c1.5-2.9 3.1-5.8 4.4-8.8 1.1-2.6 3-5.7 3.2-8.4 0-0.6-0.8-0.9-1.1-0.5-2.1 2-3.3 5.4-4.7 7.8-1.5 2.8-3 5.5-4.5 8.3q-4.8 8.3-10.2 16.2c-6.5 9.6-13.6 18.8-21.2 27.5-3.5-10-7.2-20-11.2-29.9-4.3-10.6-8.6-21.5-14.4-31.5-0.6-0.9-2.2-0.3-1.8 0.8 3.6 10.9 8.4 21.5 12.5 32.2 3.7 9.8 7.4 19.5 10.8 29.4-9.4-4.3-19.5-6.8-29.3-9.7-5.4-1.5-10.8-3.1-16.1-5.2-5.4-2.1-10.4-4.9-15.7-7.1-0.8-0.3-1.3 0.8-0.8 1.4 3.9 4.1 9.3 6.6 14.4 8.8 5.2 2.3 10.5 4.2 16 5.8 10.3 3.2 20.7 6.1 30.8 10q-13.3 5.2-25.9 11.9c-4.7 2.5-9.2 5.1-13.6 7.9-4.4 2.7-8.9 5.5-12.8 9-1 0.9 0.3 2.3 1.4 1.7 4.6-2.2 8.8-5.2 13.1-7.7 4.4-2.6 8.9-5 13.4-7.4 8.6-4.6 17.6-8.7 26.6-12.5-0.1 3.4 0 6.8 0 10.1 0 4.6 0.1 9.2 0.1 13.8q0.2 13.8 0.1 27.6c0 3 4.5 3 4.5 0q0.2-14-0.1-28c0-4.6-0.1-9.2-0.4-13.8-0.1-2.9-0.2-5.8-0.5-8.6 8.6 5.5 17.2 10.9 26 16q7 4.1 14.2 7.9 3.6 2 7.4 3.9c2.4 1.2 4.8 2.6 7.5 3 0.6 0.1 1.1-0.6 0.7-1.1-1.8-1.9-4.1-3-6.4-4.3q-3.6-2-7.2-4-7.3-4.1-14.4-8.4c-8.5-5-16.9-10.3-25.1-15.9 10.5-3 21.1-5.9 31.7-8.3 11.9-2.7 23.7-4.5 35.8-5.8 1.3-0.1 1.4-2 0-2.1z"/>
			<g id="Layer">
				<path id="Layer" class="s5" d="m327.5 384.8q0-0.2-0.1-0.5 0-0.5-0.3-1c-0.1-0.3-0.3-0.5-0.5-0.7q-0.6-0.6-1.5-0.9c-0.9-0.2-2.1 0-2.7 0.8-0.4 0.4-0.7 0.9-0.9 1.4-0.1 0.5-0.1 1.2 0 1.7 0.3 1 1.1 1.9 2.2 2.2 0.9 0.3 1.9 0 2.6-0.7q0.1-0.1 0.2-0.2 0.1-0.1 0.2-0.1c0.5-0.5 0.7-1.3 0.8-2z"/>
				<path id="Layer" class="s5" d="m327.7 370.2c-0.6-0.5-1.2-0.8-1.9-0.8-0.7 0-1.4 0.3-1.9 0.8-0.5 0.5-0.8 1.2-0.8 1.9 0 0.7 0.3 1.4 0.8 1.9 0.5 0.5 1.2 0.8 1.9 0.8 0.7 0 1.4-0.3 1.9-0.8 0.4-0.5 0.8-1.2 0.8-1.9-0.1-0.7-0.3-1.4-0.8-1.9z"/>
				<g id="Layer">
					<path id="Layer" class="s5" d="m355.3 432.5q-0.2-0.4-0.3-0.7-0.3-0.5-0.7-0.8 0 0 0 0-0.2-0.2-0.5-0.4-0.2-0.1-0.3-0.2-0.4-0.2-0.8-0.3c-0.2-0.1-0.7-0.2-0.9-0.2-0.1 0-0.7 0.1-0.8 0.2-0.6 0.1-1.1 0.4-1.5 0.8-0.4 0.4-0.7 1-0.8 1.5-0.1 0.3-0.2 0.7-0.2 1.1q0.1 0.4 0.1 0.8 0.2 0.6 0.6 1 0.2 0.4 0.5 0.6 0.5 0.4 1.1 0.5 0.1 0.1 0.2 0.1c0.2 0 0.6 0.1 0.8 0.1q0.6 0 1.1-0.2c0.3 0 0.6-0.2 0.9-0.3 0.3-0.2 0.6-0.5 0.8-0.8 0.4-0.5 0.5-0.6 0.7-1.3q0-0.3 0.1-0.7-0.1-0.4-0.1-0.8z"/>
					<path id="Layer" class="s5" d="m365.8 426.3q-0.2-0.7-0.8-1.3c-0.7-0.7-1.9-1.1-2.9-0.7q-0.7 0.2-1.3 0.6c-0.2 0.2-0.4 0.4-0.6 0.5q-0.3 0.3-0.5 0.7c-0.3 0.5-0.4 1.1-0.4 1.7q0 0.4 0.1 0.9l0.3 0.7q0.3 0.3 0.5 0.7 0.4 0.4 1 0.6 0.6 0.3 1.2 0.3 1-0.1 1.8-0.6c0.5-0.3 0.9-0.7 1.2-1.2 0.3-0.5 0.5-1.1 0.5-1.6q0.1-0.7-0.1-1.3z"/>
					<path id="Layer" class="s5" d="m376 420.7c-0.7-0.6-1.5-1-2.4-1-0.9 0-1.8 0.4-2.4 1q-0.5 0.5-0.7 1.1-0.3 0.6-0.3 1.3c0 0.9 0.3 1.8 1 2.4 0.6 0.6 1.5 1 2.4 1 0.9 0 1.8-0.3 2.4-1q0.5-0.4 0.7-1.1 0.3-0.6 0.3-1.3c-0.1-0.8-0.3-1.8-1-2.4z"/>
					<path id="Layer" class="s5" d="m387.6 416.1c0-0.2 0-0.3 0-0.4-0.3-1-1.1-1.9-2.1-2.2-0.5-0.1-0.8-0.1-1.2 0q-0.6 0-1.1 0.3l-0.1 0.1q0 0 0 0-0.4 0.2-0.7 0.5-0.1 0.1-0.2 0.2-0.2 0.2-0.3 0.4 0 0.1-0.1 0.2-0.2 0.3-0.3 0.7-0.1 0.4-0.1 0.8 0 0.7 0.2 1.2 0.2 0.4 0.4 0.7 0.2 0.3 0.6 0.5 0.3 0.3 0.7 0.4 0.5 0.3 1.1 0.3 0.5 0 1-0.1 0.4-0.2 0.8-0.4 0.5-0.3 0.8-0.8 0.3-0.3 0.4-0.7 0.3-0.5 0.3-1.2c0-0.1 0-0.3-0.1-0.5z"/>
					<path id="Layer" class="s5" d="m340.3 419.8c-1-0.6-2.3-0.5-3.3 0.3q0 0 0 0c-1.1 0.7-1.6 1.9-1.3 3.2 0.3 1.4 1.7 2.3 3.1 2.3 1.6 0 3.1-1.4 3.1-3 0-1.2-0.6-2.2-1.6-2.8z"/>
					<path id="Layer" class="s5" d="m351.4 414.9q-0.1-0.6-0.5-1.1c-0.3-0.4-0.4-0.5-0.9-0.8-0.2-0.1-0.5-0.2-0.8-0.3-0.5-0.2-0.7-0.1-1.2-0.1q-0.6 0.1-1.1 0.4-0.3 0.2-0.6 0.5-0.3 0.2-0.5 0.6c-0.5 0.8-0.6 1.7-0.4 2.5 0.2 0.9 0.7 1.5 1.4 2q0.3 0.1 0.7 0.2 0.5 0.2 1 0.1 0.1 0 0.1 0 0.3 0 0.7-0.1 0.3-0.2 0.7-0.3 0.7-0.4 1.1-1.1 0.1-0.2 0.2-0.5 0.2-0.3 0.2-0.7 0.1-0.3 0-0.5 0-0.4-0.1-0.8z"/>
					<path id="Layer" class="s5" d="m361.2 411.4q0-0.3-0.2-0.6c-0.2-0.6-0.6-1-1.1-1.3-0.4-0.2-0.9-0.3-1.3-0.4q-0.6 0-1.1 0.3-0.4 0.1-0.8 0.5c-0.1 0.1-0.2 0.3-0.2 0.3-0.3 0.3-0.2 0.2-0.4 0.6-0.1 0.4-0.2 0.7-0.2 1.1 0 0.6 0.2 1.2 0.7 1.7 0 0 0.1 0.1 0.2 0.2q0.3 0.3 0.7 0.4 0.4 0.2 0.7 0.2 0.4 0.1 0.7 0c0.6-0.1 1.1-0.3 1.5-0.8 0.4-0.4 0.7-0.9 0.8-1.5q0.1-0.3 0-0.7z"/>
					<path id="Layer" class="s5" d="m374.8 404.7c-0.1-0.4-0.2-0.7-0.4-1.1-0.4-0.6-1-1.1-1.7-1.3-0.8-0.2-1.6-0.1-2.3 0.3-0.3 0.2-0.6 0.4-0.8 0.7-0.5 0.5-0.6 0.7-0.9 1.4q-0.2 0.7 0 1.4 0.2 0.5 0.5 0.9c0.5 0.7 1.2 1.1 2.1 1.1q0.3 0 0.7-0.1c0.5 0 1-0.1 1.4-0.4l0.6-0.4q0.5-0.6 0.7-1.3c0.2-0.5 0.1-0.8 0.1-1.2z"/>
					<path id="Layer" class="s5" d="m337.8 389.4q0-0.4-0.2-0.7-0.2-0.5-0.6-0.9 0-0.1-0.1-0.1-0.3-0.2-0.6-0.5c-0.4-0.2-1-0.4-1.5-0.4-0.8 0-1.6 0.4-2.2 0.9q-0.3 0.3-0.5 0.7c-0.2 0.4-0.4 1-0.4 1.5 0.1 0.7 0.3 1.6 0.9 2.1q0.4 0.3 0.9 0.5 0.5 0.3 1 0.2 0.2 0 0.5 0 0.4 0 0.8-0.1c0.7-0.2 1.3-0.7 1.7-1.3q0.1-0.4 0.3-0.7 0.1-0.6 0-1.2z"/>
					<path id="Layer" class="s5" d="m347.8 394.6q-0.2-0.7-0.8-1.3-0.5-0.5-1.3-0.7c-1-0.3-2.1 0-2.9 0.8-0.7 0.6-1 1.8-0.7 2.7 0.3 0.9 1 1.7 2 2q0 0 0 0c0.3 0.1 0.5 0.1 0.9 0.1 0.6 0 1-0.1 1.5-0.4q0.6-0.4 1-1 0.4-0.7 0.4-1.4-0.1-0.4-0.1-0.8z"/>
					<path id="Layer" class="s5" d="m360.6 399.9q0-0.4-0.2-0.7-0.1-0.4-0.4-0.7-0.2-0.3-0.5-0.5-0.3-0.2-0.6-0.4-0.5-0.2-1-0.2c-0.5-0.1-0.7-0.1-1.3 0-1 0.2-1.8 1.1-2 2.1-0.3 0.9-0.1 2.1 0.7 2.8 0.4 0.3 0.6 0.5 1 0.7 0.5 0.2 0.7 0.3 1.2 0.3q0.9-0.1 1.7-0.5c0.4-0.3 0.8-0.7 1-1.1l0.3-0.7q0.2-0.5 0.1-1.1z"/>
					<path id="Layer" class="s5" d="m340.1 372.3q0-0.6-0.4-1.1c-0.6-1-1.5-1.5-2.7-1.6-0.5 0-0.8 0.1-1.2 0.3-0.4 0.2-0.8 0.4-1.1 0.7-0.7 0.7-1 1.9-0.8 2.9 0.2 0.5 0.5 1.1 0.9 1.4q0.5 0.5 1.2 0.7c0.5 0.2 1 0.2 1.5 0.1q0.3-0.1 0.6-0.3 0.2-0.1 0.3-0.1 0.5-0.2 0.9-0.6 0.5-0.6 0.7-1.3 0.2-0.6 0.1-1.1z"/>
					<path id="Layer" class="s5" d="m351.5 375.4q-0.4-0.7-1.2-1.2-0.5-0.3-1.2-0.4-0.3 0-0.6 0c-0.2 0-0.6 0-0.8 0.1q-0.3 0.1-0.5 0.2c-0.7 0.3-1.3 0.7-1.6 1.4-0.4 0.8-0.5 1.8 0 2.6q0.1 0.3 0.3 0.5c0.4 0.7 1.1 1.3 2 1.5q0.4 0 0.8 0.1 0.7 0 1.2-0.3 0.4-0.1 0.7-0.4 0.5-0.3 0.8-0.9 0.1 0 0.1 0c0.6-1 0.5-2.3 0-3.2z"/>
					<path id="Layer" class="s5" d="m362 382.3c-0.5-0.5-1.1-0.8-1.8-0.8-0.7 0-1.4 0.3-1.9 0.8-0.4 0.4-0.8 1.2-0.7 1.8 0 0.7 0.2 1.4 0.7 1.8 0.5 0.5 1.2 0.8 1.9 0.8 0.6 0 1.3-0.3 1.8-0.8 0.4-0.4 0.8-1.1 0.8-1.8-0.1-0.7-0.3-1.4-0.8-1.8z"/>
					<path id="Layer" class="s5" d="m364.9 341.8c-0.2-0.8-0.7-1.5-1.5-1.8-0.4-0.2-0.4-0.2-0.8-0.2-0.4-0.1-0.7-0.1-1.1 0-1.5 0.4-2.3 2.3-1.5 3.6q0 0.1 0 0.1 0 0 0 0 0 0 0 0 0.1 0.1 0.1 0.2c0.2 0.4 0.6 0.7 1 1q0 0 0.1 0 0.4 0.3 0.9 0.3c0.6 0.1 1.2 0 1.7-0.3q0.5-0.3 0.9-0.9c0.3-0.5 0.4-1.4 0.2-2z"/>
					<path id="Layer" class="s5" d="m366.7 353.7c-0.6-0.8-1.4-1.2-2.4-1.3q-0.4 0.1-0.7 0.2-0.6 0.1-1 0.5-0.7 0.5-1 1.4c-0.1 0.4-0.1 0.6-0.1 0.9q0 0 0 0 0 0 0 0.1 0 0 0 0.1 0 0.1 0 0.3 0 0.4 0.2 0.7 0.1 0.2 0.2 0.3v0.2q0.3 0.5 0.8 0.8c0.5 0.4 1.1 0.7 1.7 0.6q0.8 0 1.5-0.4 0.5-0.2 0.8-0.7 0.4-0.4 0.5-1c0.1-0.3 0.2-0.6 0.2-0.9 0-0.7-0.3-1.3-0.7-1.8z"/>
					<path id="Layer" class="s5" d="m372.7 366.2c-0.2-0.7-0.7-1.5-1.4-1.8q0 0 0 0-0.4-0.1-0.7-0.3-0.6-0.2-1.2 0-0.4 0-0.7 0.2-0.5 0.1-0.9 0.5l-0.1 0.1q-0.4 0.4-0.6 0.9-0.3 0.6-0.2 1.2 0 1.2 0.8 2.1 0.1 0 0.1 0c1.3 1.4 3.7 1 4.6-0.6q0 0 0 0c0.3-0.7 0.5-1.6 0.3-2.3z"/>
					<path id="Layer" class="s5" d="m379.2 379.1c-0.7-0.6-1.5-0.9-2.4-0.9-0.8 0-1.7 0.3-2.3 0.9q-0.5 0.5-0.7 1.1-0.3 0.6-0.2 1.3c0 0.8 0.3 1.7 0.9 2.3 0.7 0.6 1.5 1 2.3 1 0.9 0 1.8-0.4 2.4-1q0.5-0.5 0.7-1.1 0.3-0.6 0.2-1.2c0-0.9-0.3-1.8-0.9-2.4z"/>
					<path id="Layer" class="s5" d="m381.7 342.4c0-1.3-0.9-2.5-2.1-2.8-0.6-0.1-1.2-0.1-1.8 0-1.5 0.5-2.6 2.2-2.1 3.8 0.2 0.5 0.4 1 0.8 1.4q0.3 0.2 0.6 0.4c0.5 0.3 0.9 0.4 1.4 0.4q0.6 0 1-0.2 0.5-0.2 0.9-0.5 0.1-0.2 0.2-0.3 0.2-0.1 0.3-0.3c0.5-0.5 0.8-1.2 0.8-1.9z"/>
					<path id="Layer" class="s5" d="m386.8 354.2c-0.5-0.9-1.5-1.5-2.6-1.5-1.5 0-2.7 1.3-2.7 2.7 0 0.8 0.3 1.6 0.9 2.1 0.3 0.3 0.7 0.6 1.2 0.7 0.5 0.2 0.9 0.1 1.4 0q0.3-0.1 0.6-0.2 0.1-0.1 0.1-0.1 0.2-0.1 0.4-0.3c0.5-0.3 0.9-0.8 1-1.3 0.2-0.7 0.1-1.5-0.3-2.1z"/>
					<path id="Layer" class="s5" d="m392 367.2q-0.1-0.1-0.1-0.2c-0.3-0.5-0.6-0.8-1.1-1.1q-0.4-0.2-0.8-0.3c-0.7-0.1-1.3-0.1-1.9 0.2-0.5 0.3-0.8 0.8-1 1.4q-0.1 0.4-0.1 0.9c-0.1 0.6 0 1.3 0.3 1.9 0.4 0.6 1 1 1.7 1.2 0.6 0.2 1.4 0.1 2-0.3q0.6-0.3 1-0.9 0.4-0.7 0.4-1.4c-0.1-0.6-0.1-0.9-0.4-1.4z"/>
					<path id="Layer" class="s5" d="m393.6 381.7c-3 0-3 4.6 0 4.6 3 0 3-4.6 0-4.6z"/>
					<path id="Layer" class="s5" d="m408 371.3q-0.1-0.3-0.4-0.6-0.2-0.4-0.6-0.6-0.4-0.4-1-0.5l-0.8-0.1q-0.4 0.1-0.8 0.1-0.5 0.1-1 0.5-0.3 0.2-0.5 0.6-0.3 0.3-0.4 0.6-0.3 0.6-0.2 1.2l0.1 0.8c0.1 0.5 0.4 0.9 0.7 1.3 0.5 0.5 1.4 0.9 2.1 0.9q0 0 0.1 0 0.4-0.1 0.7-0.1 0.6-0.2 1-0.6c0.5-0.4 1-0.9 1.1-1.5q0 0 0 0l0.1-0.8q0-0.6-0.2-1.2z"/>
					<path id="Layer" class="s5" d="m413.7 360q-0.3-0.4-0.7-0.8c-0.6-0.6-1.3-0.9-2.2-0.9-0.7 0-1.3 0.2-1.8 0.5q-0.7 0.4-1.1 1-0.3 0.5-0.4 1.1-0.1 0.6 0.1 1.2 0.1 0.4 0.3 0.8 0.1 0.1 0.1 0.2 0.3 0.5 0.8 0.9c0.2 0.1 0.4 0.2 0.5 0.3q0.4 0.2 0.8 0.3 0.6 0.2 1.3 0.1 0.4 0 0.8-0.2 0.5-0.2 1-0.7 0.5-0.6 0.8-1.4c0.2-0.8 0-1.7-0.3-2.4z"/>
					<path id="Layer" class="s5" d="m421.1 349.9q0-0.6-0.4-1.1c-0.2-0.4-0.4-0.6-0.8-0.9q-0.3-0.3-0.6-0.4-0.3-0.1-0.5-0.2-0.8-0.2-1.6 0-0.7 0.3-1.3 0.8-0.2 0.3-0.4 0.6c-0.6 0.8-0.6 2.2 0 3q0 0.1 0 0.1 0.3 0.5 0.8 0.8c0.3 0.3 0.7 0.5 1.1 0.6 0.5 0.1 1.1 0.1 1.6 0q0.3-0.2 0.7-0.3 0.5-0.3 0.8-0.8 0.3-0.3 0.4-0.6 0.2-0.4 0.2-0.8 0.1-0.4 0-0.8z"/>
					<path id="Layer" class="s5" d="m427.7 338.4c-0.6-0.5-1.3-0.9-2.1-0.9-0.8 0-1.6 0.4-2.1 0.9-0.6 0.5-1 1.4-0.9 2.1 0 0.8 0.3 1.6 0.9 2.2 0.5 0.5 1.3 0.8 2.1 0.8 0.7 0 1.6-0.3 2.1-0.8 0.5-0.6 0.9-1.4 0.9-2.2-0.1-0.7-0.3-1.5-0.9-2.1z"/>
					<path id="Layer" class="s5" d="m438.6 349.7c-0.5-0.5-1.2-0.8-2-0.8-0.7 0-1.4 0.3-1.9 0.8-0.5 0.5-0.9 1.3-0.9 2 0.1 0.7 0.3 1.5 0.9 2 0.5 0.5 1.2 0.8 1.9 0.8 0.8 0 1.5-0.3 2-0.8 0.5-0.5 0.9-1.3 0.9-2-0.1-0.7-0.3-1.5-0.9-2z"/>
					<path id="Layer" class="s5" d="m431 361c-4.6 0-4.6 7.2 0 7.2 4.6 0 4.6-7.2 0-7.2z"/>
					<path id="Layer" class="s5" d="m427.3 370c-0.8-0.9-2.1-1.2-3.2-0.9-1.1 0.3-2.1 1.2-2.4 2.4-0.2 1.2 0 2.4 0.9 3.2 0.8 0.9 2 1.1 3.2 0.9q0 0 0.1 0c1.1-0.3 2-1.3 2.3-2.4 0.3-1.1 0-2.4-0.9-3.2z"/>
					<path id="Layer" class="s5" d="m416.3 383.2c-0.4-0.4-0.9-0.6-1.4-0.6-0.6 0-1.2 0.2-1.5 0.6-0.4 0.4-0.7 1-0.6 1.5 0 0.5 0.2 1.1 0.6 1.5 0.4 0.4 0.9 0.6 1.5 0.6 0.5 0 1.1-0.2 1.4-0.6 0.4-0.4 0.7-1 0.7-1.5-0.1-0.6-0.2-1.1-0.7-1.5z"/>
					<path id="Layer" class="s5" d="m429.8 386.9c-0.4-0.5-1-0.8-1.7-0.8-0.7 0-1.3 0.3-1.8 0.8-0.4 0.4-0.8 1.1-0.7 1.8 0 0.6 0.2 1.3 0.7 1.7 0.5 0.5 1.1 0.8 1.8 0.8 0.6 0 1.3-0.3 1.7-0.8 0.5-0.4 0.8-1.1 0.8-1.8-0.1-0.6-0.3-1.3-0.8-1.7z"/>
					<path id="Layer" class="s5" d="m443.1 383.9c-0.6-0.8-1.7-1.2-2.7-0.9-1 0.3-1.8 1.3-1.8 2.4q0 0 0 0c0 0.6 0.2 1.1 0.5 1.6 0.3 0.4 0.8 0.8 1.3 0.9q0 0 0 0 0.4 0 0.7 0.1 0.5 0 1-0.3c0.4-0.1 0.7-0.4 1-0.7 0.7-1 0.7-2.2 0-3.1z"/>
					<path id="Layer" class="s5" d="m456.5 381.8q-0.2-0.8-0.8-1.3v-0.1q-0.3-0.2-0.6-0.4-0.4-0.2-0.8-0.4-0.6-0.1-1.2 0-0.4 0-0.7 0.2-0.4 0.1-0.7 0.4-0.4 0.2-0.6 0.5-0.3 0.3-0.4 0.7-0.3 0.6-0.2 1.2c0 0.5 0.1 1.1 0.4 1.5q0.2 0.4 0.5 0.7 0.3 0.2 0.6 0.4 0.4 0.2 0.7 0.3 0.6 0.2 1.2 0.1 0.5 0 0.8-0.2 0.6-0.2 1-0.6v-0.1c0.5-0.6 0.9-1.3 0.9-2.1q0-0.4-0.1-0.8z"/>
					<path id="Layer" class="s5" d="m423.4 401.4q-0.3-1.2-1.4-1.9-0.1 0-0.1-0.1-0.4-0.1-0.8-0.3-0.6-0.2-1.3 0-0.4 0-0.8 0.2-0.6 0.2-1 0.6c-0.6 0.5-0.9 1.5-0.9 2.2v0.1q0 0.4 0.1 0.8 0.1 0.6 0.5 1.1 0.3 0.4 0.6 0.6 0.5 0.4 1.1 0.5 0.1 0.1 0.2 0.1 0.6 0.2 1.2 0.1 0.7-0.1 1.2-0.4l0.6-0.5q0.5-0.4 0.7-1 0.2-0.4 0.2-0.8 0.1-0.7-0.1-1.3z"/>
					<path id="Layer" class="s5" d="m434.1 401.6q-0.4-0.7-1.2-1.2 0 0 0 0-0.8-0.5-1.7-0.5-0.9 0-1.7 0.5c-1 0.6-1.6 1.7-1.6 2.8 0 1.2 0.6 2.3 1.6 2.9q0.8 0.4 1.7 0.4 0.9 0 1.7-0.4 0 0 0 0 0.8-0.5 1.2-1.2 0.5-0.8 0.5-1.7 0-0.8-0.5-1.6z"/>
					<path id="Layer" class="s5" d="m447.8 399.1c-0.5-0.4-1.2-0.8-2-0.8q0 0 0 0c-0.8 0.1-1.4 0.3-2 0.8-0.4 0.5-0.8 1.3-0.8 2 0.1 0.7 0.3 1.4 0.8 1.9 0.6 0.5 1.2 0.8 2 0.8q0 0 0 0c0.7 0 1.5-0.3 2-0.8 0.5-0.5 0.8-1.2 0.8-1.9-0.1-0.7-0.3-1.5-0.8-2z"/>
					<path id="Layer" class="s5" d="m459.5 396.4q-0.2-0.6-0.8-0.9c-0.5-0.3-1-0.3-1.5-0.2h-0.1c-0.6 0.1-1.2 0.7-1.2 1.3q-0.1 0-0.1 0.1c0 0.4 0 0.8 0.1 1.2q0.3 0.6 0.8 1c0.8 0.4 1.8 0.3 2.4-0.3 0.6-0.6 0.7-1.4 0.4-2.2z"/>
					<path id="Layer" class="s5" d="m419.5 409.7q-0.1 0-0.1 0-0.4-0.5-1.1-0.6-0.6-0.2-1.3 0c-0.8 0.2-1.5 0.9-1.7 1.7-0.3 0.9 0 1.8 0.6 2.4 0.6 0.6 1.6 0.9 2.4 0.7q0.1 0 0.1 0c0.8-0.3 1.5-0.9 1.7-1.8 0.2-0.8 0-1.8-0.6-2.4z"/>
					<path id="Layer" class="s5" d="m433.1 415.8c-0.3-0.6-0.9-1-1.6-1.2q0 0-0.1-0.1-0.7-0.2-1.4 0-0.6 0.2-1.1 0.7c-0.5 0.5-0.8 1.1-0.8 1.9 0 0.6 0.3 1.3 0.8 1.8q0.5 0.5 1.1 0.7 0.7 0.2 1.4 0 0.1 0 0.1-0.1 0.4-0.1 0.7-0.2 0.4-0.3 0.7-0.7c0.3-0.4 0.6-1 0.5-1.5q0-0.7-0.3-1.3z"/>
					<path id="Layer" class="s5" d="m443.1 421.1q-0.2-0.3-0.3-0.7c-0.3-0.5-0.9-1-1.4-1.2q-0.4-0.2-0.8-0.2-0.4-0.1-0.8 0-0.4 0-0.7 0.2-0.6 0.2-1 0.6c-0.3 0.4-0.6 0.8-0.7 1.3q-0.1 0.4-0.1 0.8 0 0.4 0.1 0.8l0.3 0.7q0.3 0.5 0.7 0.8c0.5 0.4 1.2 0.7 1.8 0.6 0.3 0 0.6 0 0.9-0.1 0.9-0.2 1.8-1 1.9-1.9 0.1-0.3 0.2-0.6 0.2-0.9q-0.1-0.4-0.1-0.8z"/>
					<path id="Layer" class="s5" d="m449.3 427.9c-2.5 0-2.5 4 0 4 2.6 0 2.6-4 0-4z"/>
					<path id="Layer" class="s5" d="m405.1 417.2v-0.1q-0.5-0.7-1.3-1.1c-0.6-0.2-1.2-0.3-1.8-0.1q0 0 0 0c-0.7 0.1-1.3 0.6-1.6 1.2q-0.2 0.3-0.3 0.6-0.2 0.7 0 1.4 0 0.1 0 0.1 0.2 0.7 0.7 1.2 0.5 0.5 1.2 0.7 0 0 0.1 0c0.5 0.1 0.9 0.1 1.4 0 0.6-0.2 1-0.5 1.4-1q0.2-0.2 0.3-0.5 0.2-0.4 0.2-0.7c0.1-0.6 0-1.2-0.3-1.7z"/>
					<path id="Layer" class="s5" d="m415 424.8c-0.7-0.6-1.4-1-2.3-1-0.8 0-1.7 0.4-2.2 1-0.6 0.5-1 1.4-1 2.2 0.1 0.8 0.3 1.7 1 2.3 0.6 0.5 1.3 0.9 2.2 0.9 0.8 0 1.7-0.4 2.3-0.9 0.5-0.6 0.9-1.5 0.9-2.3 0-0.8-0.3-1.7-0.9-2.2z"/>
					<path id="Layer" class="s5" d="m425.2 430.5c-0.2-0.8-0.7-1.4-1.4-1.9-1.3-0.8-3.4-0.3-4.2 1.1q-0.2 0.4-0.3 0.8-0.2 0.6 0 1.2 0 0.6 0.3 1.1 0.3 0.6 0.8 0.9 0.5 0.4 1.1 0.5 0.8 0.2 1.6 0c0.7-0.2 1.4-0.7 1.8-1.4 0.4-0.7 0.5-1.6 0.3-2.3z"/>
					<path id="Layer" class="s5" d="m433.2 436.3c-0.5-0.4-1.1-0.7-1.7-0.7-0.6 0-1.3 0.3-1.7 0.7-0.4 0.4-0.7 1.1-0.7 1.7 0 0.6 0.2 1.3 0.7 1.7 0.5 0.4 1 0.7 1.7 0.7 0.6 0 1.3-0.3 1.7-0.7 0.4-0.4 0.7-1.1 0.7-1.7 0-0.6-0.2-1.3-0.7-1.7z"/>
					<path id="Layer" class="s5" d="m441.4 440.2c-0.2-0.5-0.5-0.9-0.9-1.2-0.4-0.4-0.8-0.5-1.4-0.5q-0.1 0-0.2 0c-0.5-0.1-1.2 0.2-1.5 0.6-0.4 0.4-0.7 1-0.7 1.6q0 0 0.1 0.1c0 0.4 0.1 0.8 0.3 1.2 0.2 0.4 0.6 0.8 1.1 0.9 0.8 0.4 1.9 0.3 2.6-0.4 0.5-0.6 0.8-1.5 0.6-2.3z"/>
				</g>
			</g>
		</g>
		<g id="Layer">
			<path id="Layer" class="s5" d="m491.7 195.5q0.1 1.9 0.2 3.8c0.2 2.9 0.4 5.7 1.1 8.5 1.5 6.4 4.9 12.3 6.3 18.8 1.3 5.8 2.7 11.6 3.3 17.5q0.2 1.6 0.2 3.2 0.1 2 0 4c-0.3 6.3-1.8 12.6-2.5 18.8q-0.1 0.2-0.1 0.4-0.2 2.4-0.4 4.7c-0.4 7.5 0.2 15 1.6 22.3 1.2 5.8 3.3 11.6 4.2 17.4q0 0.1 0 0.2 0.2 1.9 0.2 3.9c0.1 4.7-0.9 9.5-2 14.1-1 4.5-2.5 8.8-3.6 13.3q-0.7 2.5-1.2 5.2-0.1 0.9-0.2 1.8c-0.8 6.5-1.5 13.3-4.7 19.3-2.5 4.6-5.8 8.8-8.1 13.6-1.9 4-3.2 6.2-6.8 8.9-3.6 2.6-8.7 6-13.7 6.9-1.4 0.2-2.8 0.2-4.1 0.1q-1.2-0.2-2.4-0.7c-1.5-0.6-2.9-1.7-4.1-3-5.5-6-7.5-18-9-24.5-1.2-5.1-0.7-9.5 0.3-13.9q0.4-1.7 0.9-3.5c0.6-2.2 1.3-4.6 1.8-7.1 1.2-5.2 1.1-10.4 0.4-15.6q-0.4-2.7-1-5.3c-2.5-12.4-7.6-24.6-6.9-37.2 0.2-5 1.7-9.6 3.2-14.2q0.5-1.6 1-3.2c1-3.3 1.9-6.5 2.3-9.9 0.4-3.9 0.6-7.8 0.8-11.8q0-1.6 0.1-3.2c0.1-3.9 0.2-7.9 0.5-11.8 0.6-9.4 2.9-18.3 5.2-27.3q0.3-1.2 0.6-2.5 0.3-1.7 0.5-3.6c0.6-5.3 0.7-10.8 2.3-15.7 1.4-4.1 3.4-8.8 6.6-11.9 1.9-1.9 5.9-5.6 8.6-5.7 2.2-0.1 3.5 2.3 5.2 3.1 3.8 1.6 5.6 1.3 8.6 5 3.9 5 4.5 10.9 4.8 16.8z"/>
			<path id="Layer" class="s1" d="m491.7 195.5q0.1 1.9 0.2 3.8-0.6 0.5-1.2 1-3.7 3.4-7.4 6.8-1.8 1.6-3.6 3.3c-0.7 0.6-1.3 1.4-2.1 1.9q-0.4 13.4-0.8 26.7-0.3 12.3-0.6 24.5 11.1-8.5 22.5-16.7 2-1.4 3.9-2.7 0.2 1.6 0.2 3.2-1.2 1-2.4 2c-8 6.3-16.2 12.4-24.4 18.4q-0.2 8.7-0.5 17.5 0.7-0.3 1.3-0.7 1.8-1 3.5-2 3.5-2.1 7.1-4.2c4.3-2.5 8.5-5.2 12.8-7.8q-0.2 2.4-0.4 4.7c-3.5 2.3-7.1 4.5-10.8 6.7q-3.4 2.1-7 4.1-1.7 1-3.5 2c-1 0.6-2 1.3-3.1 1.6-0.6 16.2-1.3 32.3-2.4 48.4 1.3-0.9 2.5-1.7 3.8-2.6q3.4-2.5 6.8-5c4.6-3.3 9.2-6.6 13.9-9.8q4-2.8 8.1-5.5 0.3 1.9 0.2 3.9-3.1 2.3-6.3 4.5c-4.7 3.4-9.4 6.7-14 10.1q-3.4 2.4-6.7 4.9c-2 1.5-4 3.1-6.1 4.5q-0.7 9-1.5 17.9c1.5-0.7 3-1.4 4.5-2.1q3.7-1.8 7.3-3.6c4.7-2.3 9.3-4.8 14-7.2q1.6-0.8 3.2-1.6-0.7 2.5-1.2 5.2 0 0 0 0c-4.6 2.5-9.4 4.9-14.1 7.3q-3.7 1.9-7.3 3.7c-2.3 1.1-4.6 2.4-6.9 3.3-1.3 12.1-3 24.2-5.2 36.2-2.2 11.6-4.9 23.1-8.3 34.6-0.7 2.3-4.5 1.6-3.8-0.8 3.2-11.1 5.8-22.4 8-33.7q1.9-9.8 3.3-19.7 0.5-3.2 0.9-6.5c-6.6-5.1-13.1-10.3-19.4-15.9q0.4-1.7 0.9-3.5c6.3 5.2 12.6 10.4 19 15.4q1.3-10.8 2.3-21.6-0.3-0.1-0.5-0.3c-6.5-5.1-12.6-10.6-18.6-16.2q-0.4-2.6-1-5.3c6.9 5.7 13.8 11.4 20.5 17.3q0.1-1.6 0.3-3.3-0.2-0.6 0.1-1.2c1-12.6 1.7-25.3 2.2-38q0 0 0-0.1c-6.4-5.6-12.4-11.5-18.4-17.5q-4.3-4.2-8.4-8.6 0.5-1.6 1-3.2 0.3 0.3 0.6 0.5 4.5 4.3 9.1 8.6c5.4 5.2 10.9 10.3 16.3 15.5q0.3-6.5 0.5-13 0.1-3.6 0.3-7.2c-1.3-1-2.3-2.4-3.3-3.5q-2.1-2.2-4.1-4.4-3.9-4.5-8-8.9-4.2-4.6-8.3-9.3 0-1.6 0.1-3.2 1.2 1.1 2.4 2.2c2.9 2.6 5.7 5.4 8.4 8.2 2.8 2.9 5.6 5.8 8.3 8.8q2.1 2.2 4 4.5 0.3 0.3 0.6 0.6 0.7-20.6 1.4-41.2 0.2-3.8 0.3-7.6c-1.3-0.5-2.3-1.7-3.4-2.6-1.2-1.1-2.4-2.2-3.6-3.3-2.4-2.2-4.8-4.5-7.2-6.7q-2.5-2.2-4.9-4.5 0.3-1.7 0.5-3.6 3.3 2.7 6.7 5.5c2.6 2.1 5.1 4.3 7.6 6.6 1.2 1.1 2.5 2.2 3.6 3.3q0.4 0.4 0.9 0.7 0.2-7.7 0.5-15.4c0.4-9.1 0.5-18.3 1.4-27.3 0.2-1.1 1.8-0.9 1.9 0.1 0.4 10.1-0.2 20.3-0.5 30.4q0.1-0.1 0.2-0.1 1.8-1.8 3.7-3.6 3.5-3.2 7.2-6.3 1.5-1.1 2.9-2.3z"/>
		</g>
		<g id="Layer">
			<path id="Layer" class="s4" d="m443.9 319.6c-9.6 1.8-19.9 3-29.3 1.3-5.8-1.1-12.3-2.4-16.8-6.2-7.8-6.7-22-19.6-24.9-29.5-2.7-9.3-1-18.4-0.4-29.2 7.5 14.8 21.1 33.4 35.8 42.2 4.7 2.8 27.1 17.9 26.8 4.6-0.2-6.1-12.1-10-16.2-12.1-7.7-4.1-15.7-7.8-23-12.6-10.1-6.6-22.3-12.9-29.8-22.7-7.9-10.4-8.4-21.6-6.4-34 2.8 5.2 3.4 11 6.8 16 5.2 7.5 12.4 13.5 19.9 18.6 8.7 5.9 17.5 11.8 26.8 16.6 3.6 1.8 12.1 8 16 5.5 6.2-3.9-7.1-12.7-9.8-14.2-10.3-5.7-21.4-11.1-30.8-18.2-6.3-4.8-12.4-9-18-14.7-3.1-3.1-6.7-5.5-8.8-9.4-4.9-9.2-4.4-23.9-0.4-33.4 2.9 6.3 4.2 12.5 9.1 18 7 7.8 15.4 13 23.8 19 7.7 5.6 14.4 12.7 22.3 18 2.9 1.9 8.1 5 11.5 2.5 5.4-4.1-3.2-11.2-6.1-13.7-9-7.7-20.1-13-29.6-20.3-8.9-6.9-24.2-14.7-26.9-27.1-1.9-9 2.9-22.4 9.6-28.5 0.7 6.1 5.5 12.6 9.2 17.4 6.3 7.9 13.9 15.3 20.7 22.9 1.9 2.2 19.8 22.4 23.1 12.2 1.5-4.9-6.1-11.2-8.9-14-6.3-6.5-12.3-13.7-17.7-20.9-6-7.9-13-17.8-10.4-28.2 2.2-8.5 10.5-20.2 19.1-23-3.8 13 4.4 26.3 8.8 38 1.7 4.6 3.1 9 7.2 12.1 2.1 1.5 4.6 2.8 5.7-0.5 0.9-2.7-0.4-8.5-0.5-11.3q-0.3-5.8-0.5-11.6c0-4.6 0.4-9-0.1-13.6-0.3-3-0.6-6.2-0.1-9.3 1-7.8 6.5-13.5 12.5-18.1 3.4 2.8 6.2 9.9 6.8 14.2 1 6.5-0.6 14.2-1.7 20.6-1.1 6.1-2.8 12.2-4.5 18.1-1.1 3.9-3.2 8.3-2.6 12.4 0.6 4 2.2 5.1 5.3 1.9 6-5.9 9.5-16.7 11.8-24.5 2-6.7 3.5-13.6 5.6-20.2 1.3-3.9 2.8-7.6 0.7-11.6 11.9 13.3 14.3 31.2 6.9 47.3-4.7 10.2-10.8 19-18.1 27.5-4.3 5.1-8.9 10.6-12 16.6 0.3-0.4-0.2-0.4 0.3-0.4-2.9 2.3 0.2 4.6 2.7 4.4 6-0.6 12.4-7.5 17.1-10.8 14.1-10 26.8-20.8 39.1-32.8 2.8 2.3 2.6 8.6 3 11.8 0.7 4.9 2.1 10.9-0.6 15.5-3.5 6-11.5 10.3-17.4 13.4-8 4.1-15.7 8.6-23 14-4.8 3.5-8.8 7.3-12.4 12-1.7 2.2-6 6.3-5.6 9.3 0.7 4.7 7.8-1.8 10-3.1 8.1-4.6 15.7-10.3 23.8-14.6 4-2.1 8-4.1 12-6.4 4.2-2.6 7.5-6.1 11.5-8.8 2.8-1.8 6-4.2 8.9-5.5 1.4 1 0.7 2.3 0.8 3.9 0.2 2.9 0.7 5.7 0.8 8.6 0 4.2 0.5 7.9-1.9 11.3-3.7 5.1-12.1 8.1-17.4 11-8.5 4.4-16.7 9.1-24.9 14.1-4.9 3-9.6 6.3-14.4 9.4-1.4 0.9-6.6 3.6-6.2 5.8 1.1 5.2 32.7-11.2 36.1-12.5 11.2-4.6 20.9-10.5 29.5-18.8 1.3 1.8-0.1 6.8-0.3 9-0.3 4.3-1.6 7.3-4 10.8-3.9 5.6-9.2 10.2-14.6 14.4-10.3 7.9-21.2 14.7-32.9 20.2-3 1.5-7 2.2-9.5 4.2 1.5 4.2 13.4-2.1 16-3.2 7.8-3.2 22-11.8 29.7-15 0.6 6.6-9.8 18.5-14.8 22.4-9.5 7.5-21.4 11.8-33.2 14.3q-2.8 0.6-5.7 1.2z"/>
			<path id="Layer" class="s5" d="m432.4 181.7c1.3 10 0.6 20.2 0.6 30.3 0 10.8 0.6 21.6 1.3 32.4 0.7 10.8 1.4 21.7 2.7 32.5 1.2 10.2 4.6 20 5.6 30.3 1.1 11.2-0.1 22.5-1 33.8-0.2 2.8 4.8 3.3 5.1 0.4 0.9-10.1 1.6-20.3 1-30.4q-0.5-7.4-2.1-14.7c-1.1-5-2.6-10-3.6-15.1-2.1-10.8-2.5-22.1-3.4-33.1q-1.3-16.3-2-32.8c-0.4-11.2 0.9-23.2-3.5-33.8-0.1-0.3-0.8-0.3-0.7 0.2z"/>
			<g id="Layer">
				<path id="Layer" class="s5" d="m406.8 163.1c-0.6-0.4-1.3-0.9-2-1.1-1.3-0.2-2.5 0.3-3.2 1.3-2 2.8 1.3 6.6 4.3 6.6q0 0 0.1 0 0 0 0.1 0 0.2 0 0.3 0c0.6-0.1 0.8-0.1 1.4-0.4 1.1-0.5 1.6-2.2 1.2-3.2-0.4-1.3-1.1-2.4-2.2-3.2z"/>
				<path id="Layer" class="s5" d="m421.1 171.8c-0.6-0.3-1-0.3-1.7-0.3q-0.3 0-0.7 0.1-0.5 0.1-0.9 0.5-0.4 0.2-0.5 0.6-0.4 0.4-0.5 1c-0.1 0.6-0.1 1.1 0.1 1.7q0 0.1 0.1 0.3c0.1 0.4 0.3 0.7 0.5 1 0.3 0.3 0.6 0.6 1 0.8q0.2 0.1 0.4 0.2c0.2 0 0.3 0.1 0.5 0.1q0.4 0.1 0.7 0.1 0.6 0 1.1-0.3c0.5-0.2 1.1-0.7 1.3-1.2 0.3-0.7 0.4-1 0.4-1.7 0-0.6-0.2-1.2-0.5-1.6-0.3-0.5-0.8-1-1.3-1.3z"/>
				<path id="Layer" class="s5" d="m423.7 184.6c-0.5-0.2-1-0.3-1.4-0.3q-0.4 0.1-0.7 0.2-0.6 0.1-1 0.5-0.3 0.2-0.4 0.5-0.3 0.3-0.4 0.7-0.1 0.3-0.1 0.7-0.1 0.5 0.1 1c0 0.3 0.2 0.7 0.4 0.9 0.2 0.4 0.5 0.7 0.9 1 0.2 0.1 0.3 0.2 0.4 0.2 0.2 0.1 0.6 0.3 0.8 0.3 0.8 0.2 1.5 0 2.1-0.4 0.7-0.3 1.1-1 1.2-1.8q0.1-0.2 0.1-0.4c0-0.6-0.1-1.2-0.4-1.7-0.4-0.7-1-1-1.6-1.4z"/>
				<path id="Layer" class="s5" d="m405.8 145.5c-0.9-0.8-2.3-1-3.4-0.5-1.2 0.5-1.7 1.6-1.8 2.9-0.2 2.8 1.6 5.6 4.1 6.9 1.8 0.9 3.8-0.2 4.3-2.1 0.4-1.4-0.1-2.6-0.8-3.7-0.4-1.4-1.5-2.6-2.5-3.5z"/>
				<path id="Layer" class="s5" d="m437.6 150.7q-0.5-0.1-1 0c-0.7 0.1-1.5 0.6-1.8 1.3-0.3 0.7-0.4 1-0.4 1.7 0 0.3 0.1 0.7 0.1 1q0.2 0.6 0.6 1.1 0.1 0.2 0.2 0.3 0.1 0.2 0.3 0.3 0.2 0.2 0.5 0.4 0.3 0.2 0.6 0.2 0.1 0 0.1 0 0.3 0.1 0.6 0.1 0.3 0 0.6-0.1 0.3-0.1 0.7-0.3c0.4-0.2 0.8-0.7 1-1.1 0.2-0.5 0.3-0.9 0.3-1.4 0-0.3-0.1-0.7-0.2-1-0.1-0.8-0.5-1.3-1-1.9q-0.5-0.4-1.2-0.6z"/>
				<path id="Layer" class="s5" d="m439 134.9c-1.5-0.8-3.7 0.2-3.9 1.9-0.2 0.9-0.1 1.9 0.5 2.8 0.7 1 2.1 2 3.4 1.4q0.6-0.2 1-0.6 0.5-0.5 0.6-1.1 0-0.2 0.1-0.4 0.3-0.9 0.1-1.9c-0.2-0.4-0.3-0.7-0.6-1-0.4-0.5-0.7-0.8-1.2-1.1z"/>
				<path id="Layer" class="s5" d="m444 116.6c-0.2 0.1-0.5 0.2-0.7 0.3q-0.4 0.2-0.7 0.6c-0.3 0.4-0.6 0.9-0.7 1.4q-0.3 1.2 0.4 2.4c0.1 0.2 0.4 0.5 0.6 0.7 0.4 0.5 0.9 0.6 1.4 0.8q0.7 0.2 1.4 0 0.7-0.3 1.2-0.8c0.5-0.5 0.7-1.3 0.7-2 0.1-0.5 0.1-1-0.1-1.4-0.1-0.5-0.4-1-0.8-1.3-0.7-0.7-1.8-1-2.7-0.7z"/>
				<path id="Layer" class="s5" d="m448.2 185.9c-1-0.4-2-0.1-2.7 0.6-1.3 1.2-2.1 2.8-2.4 4.5-0.5 2.4 2.5 4.1 4.3 2.2 0.8-0.8 1.8-2.1 2.2-3.4 0.3-0.5 0.4-1.1 0.3-1.7-0.2-1-0.6-1.9-1.7-2.2z"/>
				<path id="Layer" class="s5" d="m457.8 169.8c-0.7-0.3-1.4-0.4-2.1-0.2q-1.1 0.4-1.7 1.4 0 0 0 0.1 0.1-0.1 0.2-0.3-0.2 0.3-0.3 0.5-0.2 0.2-0.4 0.6c-0.3 0.5-0.4 1-0.4 1.6 0.1 0.8 0.4 1.7 1.1 2.3 1.3 1.2 3.4 1.1 4.6-0.1q0.7-0.8 0.9-1.7c0.1-0.7 0-1.2-0.1-1.8-0.2-1-0.9-2-1.8-2.4z"/>
				<path id="Layer" class="s5" d="m468.5 156c-0.7 0-1.5 0.3-2 0.9-0.4 0.5-0.7 1.2-0.7 1.9q0 0.5 0.1 1c0.2 0.8 0.8 1.5 1.5 1.8q0.4 0.1 0.7 0.3 0.6 0.1 1.1 0c0.6-0.1 1.3-0.4 1.7-0.9q0 0 0 0 0.2-0.3 0.5-0.7 0.2-0.5 0.3-1.1c0-0.6-0.1-1.2-0.5-1.8-0.6-0.9-1.6-1.5-2.7-1.4z"/>
				<path id="Layer" class="s5" d="m469.9 138.7q-0.4 0-0.8 0-0.6 0-1.1 0.3-0.4 0.1-0.7 0.4-0.5 0.4-0.8 0.9-0.3 0.8-0.3 1.6 0 0.4 0.2 0.9 0.1 0.7 0.5 1.3c0.5 1 1.5 1.8 2.7 1.7 0.9-0.1 1.8-0.6 2.2-1.5 0.3-0.3 0.3-0.7 0.3-1.1q0 0 0-0.1 0.1-0.2 0.1-0.3c0.4-0.9 0.2-1.8-0.2-2.6-0.1-0.2-0.4-0.6-0.6-0.7-0.4-0.4-0.9-0.6-1.5-0.8z"/>
				<path id="Layer" class="s5" d="m419.5 215.3c-1.3-0.9-3-1.5-4.5-0.6-1.7 1.1-2.1 3.3-1.1 5 0.6 1.2 1.8 2.1 2.9 2.8 0.9 0.6 2 1.3 3.2 1.4 1.9 0.1 3.6-1.6 3.3-3.6q-0.1-0.2-0.2-0.5c0-0.5-0.1-1.1-0.4-1.6-0.8-1.2-2-2.1-3.2-2.9z"/>
				<path id="Layer" class="s5" d="m398.2 205c-0.5-0.1-1.1 0.2-1.5 0.4-0.6 0.4-1 0.9-1.2 1.6-0.2 0.5-0.2 1-0.2 1.5 0.2 0.7 0.5 1.2 1 1.7 0.5 0.7 1.3 1.1 2 1.4q0.2 0 0.3 0.1c1.2 0.6 2.9 0.4 3.8-0.7 0.9-1 1.1-2.6 0.3-3.8-1-1.6-2.7-2.1-4.5-2.2z"/>
				<path id="Layer" class="s5" d="m392.1 188.7c-1.1-0.6-2.6-0.3-3.5 0.4-1.1 0.9-1.4 2.2-1.1 3.5 0.3 1.3 1.2 2.3 2.3 2.9 0.4 0.3 0.9 0.5 1.4 0.5q0 0 0 0 0.2 0.1 0.3 0.1c0.7 0.2 1.7 0 2.3-0.3q1-0.7 1.3-2c0.6-2.2-1.2-4.1-3-5.1z"/>
				<path id="Layer" class="s5" d="m374.2 182.3c-1.7 0-3.1 1.2-3.5 2.8-0.3 1.3 0.3 2.8 1.3 3.6 0.7 0.7 1.6 1.1 2.5 1.4 1.5 0.6 3.2-0.1 4.1-1.5q0.3-0.7 0.3-1.3c0.3-2.5-2.3-5-4.7-5z"/>
				<path id="Layer" class="s5" d="m415.8 248.3c-0.9-0.7-1.9-1.1-3-1.3-1.1-0.4-2.4 0.1-3.2 1-0.9 0.9-1 2.1-0.8 3.3 0.7 2.7 3.9 4.6 6.6 3.7 1-0.4 1.8-1.2 2-2.3q0.4-0.8 0.2-1.9c-0.2-1.2-0.8-1.9-1.8-2.5z"/>
				<path id="Layer" class="s5" d="m397.8 240.7c-0.8-0.4-1.8-0.6-2.7-0.5-0.6 0.1-1.1 0.2-1.7 0.5-0.6 0.4-1.1 1-1.4 1.8-0.2 0.5-0.2 1.1-0.1 1.7 0.1 0.8 0.5 1.4 1 2 0.5 0.5 1.1 0.9 1.8 1.2 0.4 0.1 0.8 0.3 1.3 0.4q0.3 0 0.5 0 0.7 0.1 1.3-0.1 0.1 0 0.2 0c0.5-0.1 0.9-0.5 1.3-0.9q0.5-0.5 0.8-1.2c0.3-0.8 0.2-1.4 0.1-2.2-0.2-1.2-1.3-2.2-2.4-2.7z"/>
				<path id="Layer" class="s5" d="m384.7 222.7c-0.4-0.3-1-0.4-1.5-0.6q-0.4 0-0.8-0.1-0.7 0-1.3 0.4c-0.7 0.3-1.3 0.8-1.7 1.5q-0.3 0.8-0.4 1.7c0 0.8 0.5 1.9 1.2 2.4q0.2 0.2 0.5 0.5c0.3 0.4 0.8 0.6 1.2 0.9q0.4 0.2 0.9 0.3 0.5 0.1 1 0.1 0.6 0 1.2-0.2 0.8-0.2 1.4-0.8c0.7-0.8 0.9-1.8 0.8-2.8q-0.1-0.4-0.3-0.8-0.1-0.4-0.4-0.8c-0.4-0.7-1-1.3-1.8-1.7z"/>
				<path id="Layer" class="s5" d="m368.4 209.9q-0.3-0.3-0.6-0.7c-1.3-1.2-3.4-1.2-4.8-0.1-0.6 0.5-1.1 1.2-1.2 2-0.2 0.9-0.1 1.9 0.4 2.7 0.6 0.7 1.2 1.4 2.1 1.8 0.4 0.2 0.8 0.4 1.2 0.5 0.7 0.1 1.4 0.1 2.1-0.1 0.8-0.2 1.6-0.9 1.9-1.6 0.4-0.7 0.5-1.8 0.3-2.5q-0.4-0.9-1-1.5 0 0 0 0-0.2-0.2-0.4-0.5z"/>
				<path id="Layer" class="s5" d="m424.6 282.1c-0.6-0.5-1.4-0.9-2.3-1.1q-0.4-0.1-0.8-0.1-0.7 0-1.3 0.3c-0.6 0.3-1.3 0.8-1.6 1.5q-0.4 0.8-0.4 1.7c0 0.7 0.5 1.8 1.1 2.3 0.5 0.3 1 0.7 1.5 0.9q0.8 0.4 1.6 0.6c1.9 0.4 3.7-1 3.9-2.9q0.1-1.3-0.7-2.3-0.4-0.5-1-0.9z"/>
				<path id="Layer" class="s5" d="m408.1 273.5q-0.2-0.1-0.4-0.2 0 0 0 0-0.4-0.2-0.8-0.3-0.7-0.2-1.3 0-0.7 0-1.2 0.4c-0.8 0.5-1.4 1.2-1.5 2.1-0.2 0.9-0.1 1.8 0.4 2.5q0.1 0.2 0.3 0.4c0.4 0.6 0.9 1.2 1.6 1.5q0.4 0.2 0.8 0.3 0.7 0.2 1.3 0 0.5 0 0.9-0.2 0.6-0.3 1.1-0.8 0.6-0.7 0.8-1.6c0.3-0.9 0-1.9-0.4-2.6-0.2-0.3-0.5-0.6-0.7-0.9-0.3-0.2-0.6-0.4-0.9-0.6z"/>
				<path id="Layer" class="s5" d="m389.9 261.7q-0.1-0.1-0.3-0.2c-0.5-0.2-1-0.3-1.6-0.3q-0.6 0-1.1 0.3-0.6 0.2-1 0.6-0.2 0.4-0.4 0.7-0.3 0.5-0.3 1.1c-0.1 0.6 0 1.3 0.4 1.8q0.2 0.3 0.5 0.6 0 0 0 0c0.3 0.4 0.7 0.6 1.1 0.8 0.3 0.1 0.6 0.2 1 0.3 0.6 0.1 1 0.1 1.6-0.1q0.8-0.2 1.3-0.8 0.4-0.4 0.6-1 0.2-0.5 0.2-1.1-0.1-0.7-0.5-1.4c-0.3-0.6-0.9-1-1.5-1.3z"/>
				<path id="Layer" class="s5" d="m369.6 248.6c-0.5 0.5-0.7 1.2-0.7 1.9 0 0.6 0.3 1.4 0.8 1.8 1.1 0.9 2.7 0.9 3.7-0.1 0.4-0.5 0.7-1.2 0.7-1.9 0-0.6-0.4-1.4-0.8-1.8-1.1-0.9-2.7-0.9-3.7 0.1z"/>
				<path id="Layer" class="s5" d="m431.9 312q-0.4-0.3-0.9-0.4c-0.4-0.1-0.8-0.1-1.1-0.1q-0.3-0.1-0.5-0.1-0.3 0-0.6 0.1-0.2-0.1-0.4 0c-0.8 0-1.7 0.4-2.2 0.9q-0.6 0.8-0.7 1.8c-0.2 1.6 0.8 2.9 2.3 3.3q0.1 0 0.1 0c0.4 0.2 0.7 0.3 1.1 0.4 0.7 0.2 1.4 0.1 2-0.2 0.6-0.3 1.2-0.8 1.5-1.4q0.1-0.2 0.1-0.4c0.9-1.2 0.6-3-0.7-3.9z"/>
				<path id="Layer" class="s5" d="m415.4 308.6c-0.9-0.4-1.6-0.5-2.6-0.5-1.7-0.1-3.1 1.5-3.2 3.1-0.2 1.3 0.6 2.7 1.8 3.3 0.6 0.4 1.3 0.6 2 0.6 0.4 0.1 0.9 0.1 1.3 0.1 1-0.2 2-0.6 2.5-1.6 0.4-0.9 0.4-1.8 0-2.6q0-0.1-0.1-0.2c-0.2-0.9-0.8-1.7-1.7-2.2z"/>
				<path id="Layer" class="s5" d="m398.8 299.3c-0.6-0.4-1.1-0.9-1.8-1.2q0 0 0 0-0.3-0.2-0.8-0.3c-0.7-0.1-1.8 0-2.4 0.4-1.6 1.1-2 3-1.1 4.6 0.4 0.6 0.9 1.1 1.4 1.7q0.2 0.2 0.4 0.5c0.6 0.5 1.2 0.8 2 1 2.4 0.7 5-2 4-4.4-0.2-0.8-0.5-1.3-1.2-1.9q-0.2-0.2-0.5-0.4z"/>
				<path id="Layer" class="s5" d="m384.8 282.3c-1.1-1.1-2.8-1.4-4.3-0.5-0.8 0.5-1.4 1.4-1.6 2.3-0.3 1.3 0.2 2.4 1.1 3.4 0.8 0.9 1.9 1.5 3.2 1.4 1.4-0.2 2.8-1.1 3.1-2.6 0.2-0.8 0.1-1.4-0.1-2.2-0.3-0.8-0.8-1.3-1.3-1.9q-0.1 0-0.1 0.1z"/>
				<path id="Layer" class="s5" d="m458.7 306.1c-0.7-0.4-1.5-0.3-2.2-0.2-0.7 0.2-1.4 0.6-2.1 1-0.6 0.3-1.1 1.1-1.3 1.8q-0.1 0.9 0.3 1.8c0.6 1.3 2 1.9 3.4 1.6q0.8-0.2 1.6-0.4c0.7-0.2 1.4-0.7 1.7-1.4 0.4-0.9 0.4-1.9-0.1-2.7q0-0.1 0-0.1-0.1-0.2-0.2-0.3-0.5-0.7-1.1-1.1z"/>
				<path id="Layer" class="s5" d="m473.7 301.2q-0.5-0.6-1.2-0.7c-0.4-0.1-0.9-0.1-1.3-0.1-0.6 0-1.2 0.2-1.7 0.5-0.6 0.4-0.9 0.9-1.3 1.5q-0.4 0.7-0.4 1.6 0 0.6 0.3 1.2 0.3 0.6 0.8 1 0.6 0.6 1.5 0.8 0.5 0.1 1 0.1c0.6-0.1 0.8-0.1 1.3-0.4 0.5-0.2 0.7-0.3 1.1-0.8q0.4-0.3 0.6-0.8 0.3-0.6 0.3-1.2 0.1-0.6-0.1-1.2 0 0 0-0.1-0.1-0.3-0.2-0.5-0.2-0.6-0.7-0.9z"/>
				<path id="Layer" class="s5" d="m485.7 293.9c-0.5-0.5-1.2-0.8-2-0.8q-0.3 0.1-0.7 0.1 0 0-0.1 0.1c-0.4 0.1-0.9 0.4-1.2 0.7-0.2 0.2-0.4 0.5-0.5 0.8-0.3 0.4-0.3 0.6-0.3 1.1q0 0.3-0.1 0.6c0 0.6 0.4 1.4 0.9 1.8 0.5 0.4 1.1 0.7 1.8 0.6q0.1 0 0.2 0c0.5 0 0.8-0.1 1.2-0.3 0.3-0.2 0.3-0.2 0.7-0.4q0.3-0.2 0.5-0.6 0.2-0.3 0.3-0.7c0.2-0.4 0.1-0.3 0.2-0.7q0.1-0.4 0-0.7-0.1-0.4-0.3-0.7c-0.1-0.4-0.2-0.6-0.6-0.9z"/>
				<path id="Layer" class="s5" d="m458 279.9c-0.7-0.3-1.5-0.3-2.2-0.1q0 0-0.1 0 0 0 0 0c-2.3 0-4.6 1.4-5 3.8-0.2 1.3 0.1 2.6 1.1 3.6 1 0.9 2.4 1.2 3.7 0.8q0.1 0 0.1-0.1c0.9 0.1 1.8-0.1 2.6-0.5 0.9-0.5 1.7-1.6 1.9-2.6q0.1-0.3 0.1-0.5c0.2-0.7 0.2-1.4 0-2.1-0.3-1.1-1.1-1.9-2.2-2.3z"/>
				<path id="Layer" class="s5" d="m477 273.6c-0.7-0.4-1.4-0.4-2.1-0.3q-0.1 0-0.2 0c-0.5 0-1 0.1-1.3 0.2-0.4 0.1-0.8 0.3-1.1 0.5-0.6 0.4-1.2 1-1.5 1.6q-0.4 0.9-0.4 1.9 0 0.9 0.5 1.8c0.7 1.1 2 1.7 3.3 1.7q1 0 1.9-0.5 0.8-0.3 1.4-0.9 0.1-0.2 0.3-0.3 0.3-0.4 0.6-0.9c0.1-0.3 0.3-0.8 0.3-1 0.3-1 0-1.8-0.4-2.6q-0.3-0.4-0.6-0.7-0.4-0.3-0.7-0.5z"/>
				<path id="Layer" class="s5" d="m497.1 260.9c-0.7-0.4-1.4-0.7-2.2-0.7-1 0.1-1.9 0.5-2.5 1.2q-0.4 0.3-0.8 0.6-0.1 0.2-0.3 0.3c-0.5 0.6-0.7 1.2-1 2-0.3 1.2 0.2 2.6 1.1 3.4 0.9 0.8 2.4 1.3 3.6 0.8 0.7-0.3 1.3-0.5 1.8-1.1 0.3-0.3 0.6-0.7 0.8-1.1q0.3-0.4 0.6-0.8 0.4-0.6 0.4-1.3 0.1-0.7-0.2-1.4-0.3-1.2-1.3-1.9z"/>
				<path id="Layer" class="s5" d="m453.2 254.1c-0.9-0.4-2-0.5-2.9-0.2-0.7 0.2-1.1 0.5-1.6 0.9-1 0.8-1.7 2.2-1.6 3.5 0.1 1.2 0.6 2.2 1.6 2.8 0.9 0.7 2 0.9 3.1 0.6 0.5-0.2 1.1-0.5 1.6-0.8 0.8-0.6 1.2-1.2 1.8-2q0.4-0.8 0.3-1.7 0-0.9-0.5-1.6c-0.4-0.7-1-1.2-1.8-1.5z"/>
				<path id="Layer" class="s5" d="m471.8 241.1c-0.9-0.4-1.8-0.4-2.8-0.2q-1.4 0.3-2.6 1.1c-0.7 0.5-1.2 1.1-1.5 1.9-0.3 0.8-0.4 1.7-0.1 2.4 0.6 1.6 2 2.7 3.8 2.7 0.9 0 2-0.4 2.8-1 0.9-0.3 1.6-0.9 2.1-1.7 0.4-0.9 0.5-2 0.2-2.9-0.3-0.9-0.9-1.8-1.9-2.3z"/>
				<path id="Layer" class="s5" d="m488 231.6c-1.4 0.1-2.7 0.7-3.5 1.8q-0.7 0.7-0.9 1.6-0.2 1 0.1 1.9c0.3 1.2 1.4 2.2 2.6 2.4 1 0.2 2 0.1 2.9-0.4q0.1 0 0.2-0.1c0.4-0.1 0.7-0.3 1.1-0.5 1.3-0.9 2.1-2.6 1.6-4.2-0.6-1.7-2.3-2.7-4.1-2.5z"/>
				<path id="Layer" class="s5" d="m503.7 224.2q-0.9-0.4-1.8-0.4c-0.5 0-0.8 0.1-1.3 0.3-0.5 0.3-0.7 0.4-1.2 0.8-0.1 0.2-0.4 0.6-0.5 0.8q0 0.1-0.1 0.2-0.4 0.7-0.3 1.6 0 0.6 0.3 1.2 0.2 0.6 0.7 1 0.6 0.5 1.3 0.7 0.2 0.1 0.4 0.2c0.6 0.1 1.3 0.1 1.9-0.1 0.8-0.3 1.6-0.9 2-1.7l0.3-0.8q0.2-0.7 0-1.3 0-0.5-0.2-0.9-0.3-0.6-0.8-1.1-0.4-0.3-0.7-0.5z"/>
				<path id="Layer" class="s5" d="m450.2 220.7q-0.3 0.1-0.6 0.1c-2.1 0.1-4.2 1.7-5.1 3.6-0.6 1.3-0.5 2.9 0.5 4.1 1 1.2 2.5 1.5 4 1.2 2.7-0.5 5.6-3.6 4.6-6.5-0.5-1.4-1.9-2.6-3.4-2.5z"/>
				<path id="Layer" class="s5" d="m464.3 210.6c-1.6 0-2.8 1-3.9 2.1-1 1.1-1.2 2.8-0.6 4.1 0.6 1.3 2 2.3 3.5 2.2 1.3-0.1 2.5-0.6 3.4-1.6q0.6-0.5 1.1-1.3c0.7-1.1 0.5-2.7-0.1-3.8-0.8-1.1-2-1.7-3.4-1.7z"/>
				<path id="Layer" class="s5" d="m483.6 197.6c-0.7 0-1.1 0-1.8 0.2-0.4 0.1-0.8 0.3-1.1 0.5q-0.2 0.1-0.3 0.2c-0.9 0.6-1 0.9-1.6 1.7l-0.3 1q-0.2 0.7-0.1 1.5c0.2 0.8 0.6 1.6 1.2 2.2q0.8 0.7 1.8 0.9 0.5 0.2 1 0.1 0 0 0 0c1 0 2-0.4 2.8-0.9q1-0.7 1.6-1.8c0.2-0.4 0.3-0.8 0.4-1.3q0 0.1 0 0.2 0-0.1 0-0.2 0-0.3 0-0.7 0.1 0 0.1 0-0.1-0.9-0.6-1.7c-0.1-0.2-0.4-0.5-0.6-0.8-0.7-0.7-1.6-1-2.5-1.1z"/>
				<path id="Layer" class="s5" d="m497.4 187.5q-1-0.2-1.9 0.1-0.1 0-0.1 0-0.7 0.2-1.3 0.7-0.4 0.3-0.7 0.8-0.2 0.2-0.3 0.5-0.2 0.5-0.4 0.9c-0.1 0.7 0 1.4 0.1 2q0.3 0.9 1 1.6 0.8 0.7 1.7 0.9 0.1 0 0.1 0 0.7 0.2 1.4 0 0.5 0 0.9-0.3 0.3-0.1 0.5-0.2c0.3-0.2 0.7-0.5 0.9-0.7 0.5-0.5 0.7-1.2 0.9-1.8q0.2-1 0-2-0.3-0.9-1.1-1.6-0.7-0.7-1.7-0.9z"/>
			</g>
		</g>
		<g id="Layer">
			<path id="Layer" class="s2" d="m488.3 375.7c3.2 3-1.8 3.5-3.1 5.3-4.3 6 12.3 2.5 14.8 2.8 4.1 0.3 6.7 3.5 3.5 5.5-3.9 2.6-11-0.1-15.7 0.8-3.5 0.6-8.2 1.6-4.3 4.8 3.7 2.9 11 2.4 15.4 3.4 3.6 0.8 11.9 5.4 6.8 7.9-4 2.1-10.6-1.9-14.8-2.6-5.3-0.8-4.4 2.2-1.2 5 3.6 3.2 17.7 8.6 17.5 13.4-0.2 8.9-25.7-12.8-28.5-7.3-2.1 4 7.8 9.6 10.6 11.9 5.8 4.7 15.1 9.5 19 15.4 4 6.1-3.4 3.6-7.5 1.3-7.7-4.4-14.5-10.7-22.5-14.5-8.1-3.9-5.8 1.8-3.1 6 4.7 7.1 12.2 11 19.3 16.1 2.7 2 17.8 14.3 12.6 17-4.4 2.3-15.8-8.8-18.6-11.1-2.8-2.2-12.1-12.4-15.9-10.6-4.6 2.1 3.4 10.9 5.4 13.4 6.1 7.7 14.2 14.2 20.1 21.9 1.5 1.8 9.8 14.5 2.5 13.9-2.3-0.2-7-5-8.5-6.5-3.4-3.2-7.2-6.4-10.4-9.8-1.9-1.9-8.8-11.5-12.5-10.4-4.5 1.2 2.8 12.9 4.1 15 4.9 8.3 11.4 16.3 14.8 25 1 2.6 4.6 12.6-2.6 10.5-5.5-1.7-9.4-14.3-12-18.1-10.3-14.5-14.4 5.7-15.9 11.8-0.9 3.8-2.3 14.5-7.2 16.3-5.9 2.3-8.6-5.2-8.6-8.5 0-7.5 3-14.3 3.4-21.7 0-1.4-0.9-3.4-2.5-1.9-0.4 0.5-0.6 1-0.9 1.6-2 4.8-6 7.8-10.3 11-1.2 0.9-4.5 3.3-6.6 2.4-2.8-1.2-0.4-6.9 0.1-8.3 2.3-5.6 7.4-9.5 10.2-14.7 1.3-2.5 3.3-6.4-2.2-5.3-8.7 1.7-11.3 13.6-20.7 13.4-4.8-6.5 3.8-13.3 7.8-17.2 3.4-3.4 6.5-7 9.9-10.4 1.3-1.4 5.6-4.5 3.9-6.7-6.2-7.7-23.4 15.2-29.5 10.8-4.3-3.2 2.6-10.4 4.6-12 6.8-5.4 15.7-9.6 23.1-14.3 3-1.9 9.9-5.2 8.8-9.4-0.7-2.5-2.4-3.1-5.4-3.2-9.1 0-18.8 7.8-25.6 11.6-3.3 1.8-10.4 8.4-15.6 4.8-6.9-4.8 5.9-12.4 9.2-14.6 8.9-6 22.6-6 31.4-11.7 6.6-4.3 1.2-9.1-6.3-9.5-8.3-0.4-16.2 1.6-24.3 1.9-4.1 0.1-10.8 0.3-9.1-4.9 1.1-3.2 6.6-4 10.3-4.3 7.7-0.7 16.6 2.4 23.9 1.2 2.8-0.5 5.8-2.1 4-4.9-1.6-2.4-7.2-3.3-9.8-3.9-4.5-1-8.6-1.3-12.8-0.8-2 0.3-7.5 1.7-9.6 0.9-7.2-3 5-6.9 7.4-7.3 4.6-0.9 13.9 1.6 15.9-2.7-1.8-1.7-3.9-2.4-6.4-3-1.3-0.3-5.9-0.4-6.9-1.1-5.3-3.8 4.8-5.6 7.2-5.8 3.3-0.2 13 3.4 13.1-0.7 0.1-3.6-8.4-5.8-9.2-9-0.7-2.8 5.4-2.9 7.8-2.4 3.2 0.6 6.6 3 9.2 4.7 2.6 1.7 5.1 2.7 7.6 4.1 1.2 0.7 2.1 1.4 2.8 2.1 2.2 2.4 2.4 5.2 3.1 8.2 0.6 3.1 2 7.5 6.3 5.3-0.3-0.5 1.3-0.1 1.6-0.5 1.7-0.2 2.4-1.1 3.5-1.9 1.8-1.5 2.9-3.5 3.8-5.4 1.4-2.9 2.6-6 5.9-7.9 2.5-1.4 11.1-4.6 14.4-1.6z"/>
			<path id="Layer" class="s3" d="m468 385.2c5.9 5.3 8.1 14.9 4.4 20.7-2.1 3.5-7.4 4.9-8.3 8.8-1 4.5 4 8.7 2.9 13-0.8 2.8-4 3.1-5.5 5-2.2 2.9-0.4 8.6 0.3 12 1.5 7.9 1.9 15.5 0.9 23.1-0.5 3.5-1.8 19.5-7.4 19.2-9.1-0.6-5.9-25.2-5.5-28.7 0.3-1.6 1.4-3.3 0.2-4.8-0.9-1.2-3.2-1.4-4.3-2.8-2.5-3.1-1.2-9.7-0.6-12.9 1.7-8.3 7.5-18.6-1-26.9-2.8-2.7-5.9-5.3-6.6-8.9-0.7-3.6 3.1-4.8 3.4-7.8 0.4-4.9-8.3-7.6-4.7-12.6 2.7-3.9 8.4-3.4 13.5-2.1 2.2 2.4 2.4 5.2 3.1 8.2 0.6 3.1 2 7.5 6.3 5.3-0.3-0.5 1.3-0.1 1.6-0.5 1.7-0.2 2.4-1.1 3.5-1.9 1.8-1.5 2.9-3.5 3.8-5.4z"/>
			<path id="Layer" class="s6" d="m438.8 469.3c-1.9 0.4-3.8 1.3-5 2.5q-0.7 0.4-1.2 0.9c-1.5 1.6-1.7 5 1.4 6.1 2.6 1 4.8-0.7 6.6-1.8 2-1.2 3.5-3.3 2.5-5.7-0.6-1.7-2.5-2.4-4.3-2z"/>
			<path id="Layer" class="s6" d="m426 478.3q-0.1 0-0.1 0-0.3 0-0.6 0.1-0.2 0-0.4 0.1-0.4 0-0.7 0.3-0.4 0.2-0.5 0.5-0.3 0.4-0.2 0.8c0 0.5 0.2 1 0.6 1.4 0.5 0.4 1.1 0.7 1.7 0.8 0.3 0 0.6 0 0.8 0 0.3 0 0.6-0.1 0.8-0.2q0.3-0.1 0.5-0.3 0.2-0.1 0.4-0.3 0 0 0.1-0.1 0.1-0.1 0.1-0.2 0.1-0.2 0.2-0.3 0.1-0.5 0-1-0.2-0.5-0.6-0.9c-0.5-0.5-1.4-0.8-2.1-0.7z"/>
			<path id="Layer" class="s6" d="m439.7 449.8q-0.6-0.2-1.2-0.1c-2.2-0.2-4.4 1.2-4.7 2.9-0.2 0.8-0.1 1.7 0.7 2.5 0.8 0.7 1.9 1.1 3 1 1.1-0.1 2.2-0.4 3-1 0.9-0.6 1.8-1.6 1.7-2.7 0-1.2-1-2.3-2.5-2.6z"/>
			<path id="Layer" class="s6" d="m451.9 497.5c-1.1-0.1-2.1 0.2-2.6 0.9-1.6 2.2-1.6 4.9 0 7.5 1.1 1.9 4 2.1 5.2 0.7q0.7-0.8 1.1-1.8 0.5-1 0.4-2.2c-0.1-1.2-0.5-2.4-1.3-3.6-0.7-0.9-1.8-1.4-2.8-1.5z"/>
			<path id="Layer" class="s6" d="m463.3 484.1c0 2.5 2.6 5.9 5.9 6.2q0.2 0 0.3 0 0 0 0.1 0 0 0 0 0 0.9 0 1.6-0.4 0.1-0.1 0.2-0.2 0 0 0.1 0 0 0 0 0c1.2-1.1 0.6-2.9-0.3-4.2-0.8-1.1-2-2.2-3.3-2.9-2-1.1-4.5-0.4-4.6 1.5z"/>
			<path id="Layer" class="s6" d="m440.5 424.9c-1-0.3-1.6-0.1-2.4 0.3 0.4-0.2-0.1 0-0.3 0.1q-0.6 0-1.3 0.3c-1.1 0.3-1.9 0.9-2.6 1.7-0.7 0.8-0.5 2.2 0.4 3.1 1.1 0.9 2.5 1.2 3.7 0.8-0.5 0.2 0.2 0 0.4 0q0.4 0 0.8 0c0.9-0.1 1.7-0.4 2.4-0.8 1.5-0.9 2-2.5 1.1-4.1-0.4-0.7-1.3-1.2-2.2-1.4z"/>
			<path id="Layer" class="s6" d="m408.5 438.2q-0.5 0-1 0.2c-1.6-0.2-3.1 0.7-3.5 2-0.5 1.3 0.8 3 2.6 3.1 1.3 0.2 2.5 0 3.4-0.7 1-0.7 1.8-2.1 0.9-3.3-0.6-0.8-1.4-1.3-2.4-1.3z"/>
			<path id="Layer" class="s6" d="m438.3 410.7q-0.2 0-0.3 0-0.2 0-0.4 0.1-0.5-0.1-1-0.2c-1.6-0.1-3.1 0.7-3 2.1 0.1 1.5 1.3 2.5 3 2.9q0.1 0 0.3 0 0.7 0.1 1.4 0.1 0 0 0.1 0c1-0.1 2-0.3 2.6-0.8 0.8-0.7 1.2-1.7 0.5-2.7-0.7-1-2-1.7-3.2-1.5z"/>
			<path id="Layer" class="s6" d="m426.4 392.7c-0.5 0.8-0.6 1.7 0 2.7 0.6 0.8 1.7 1.5 2.8 1.7q1.1 0.1 2.1 0c2.1 0.6 4.6 0.1 5.9-0.9 1.5-1.2 1.2-3.1-0.6-4.4-3.3-2.2-8.5-1.9-10.2 0.9z"/>
			<path id="Layer" class="s6" d="m477.6 403.5c-1.5 0.4-2.1 2.2-1.2 3.4 0.9 1.4 2.4 2.7 4.1 3.5 0.7 0.4 1.6 0.7 2.4 0.7q1 0.2 2 0.2c2.1-0.2 2.8-2.4 1.4-3.8q-0.1-0.6-0.5-1.1c-0.7-1.2-2.2-2-3.5-2.6-1.6-0.7-3.2-0.7-4.7-0.3z"/>
			<path id="Layer" class="s6" d="m477 385.5q-0.5-0.1-1.1 0c-1.2 0.2-1.9 0.7-2.7 1.4-0.7 0.6-0.5 1.8 0 2.5 0.5 0.9 1.5 1.5 2.7 1.7 2.1 0.3 4.4-0.4 5.3-1.9 0.4-0.6 0.6-1.1 0.3-1.8-0.1-0.6-0.7-1.3-1.3-1.6-1-0.6-2.3-0.7-3.2-0.3z"/>
			<path id="Layer" class="s6" d="m476.1 419c-0.9-0.6-1.8-1.1-2.9-1.4-1.6-0.4-3.2-0.2-3.9 1.1-0.7 1.2-0.1 2.7 1.3 3.6q0.7 0.5 1.6 1 0.4 0.3 0.9 0.6 0.6 0.3 1.2 0.5 0.9 0.4 1.8 0.5c1.5 0.1 2.7-0.6 2.9-1.8 0.1-0.5 0-1-0.3-1.5q0 0 0 0-0.1 0-0.1-0.1-0.3-0.4-0.7-0.7-0.3-0.3-0.7-0.6-0.4-0.6-1.1-1.2z"/>
			<path id="Layer" class="s6" d="m468 435.3c-2.7-0.1-4.1 1.8-2.8 3.8 0.2 0.8 0.7 1.6 1.6 2.1q0.6 0.3 1.2 0.6c1.3 0.8 2.9 1.5 4.3 1.6 1.4 0.1 2.6-0.5 2.8-1.7 0.1-0.7-0.3-1.5-1-2.1q-0.1-0.5-0.4-1.1c-1.2-1.7-3.3-3.1-5.7-3.2z"/>
			<path id="Layer" class="s6" d="m469.3 457c-2.1-0.4-3.9 1.4-3.3 3 0.4 0.9 0.9 1.7 1.6 2.5 0.7 1.1 2 2 3.4 2.2 0.6 0.2 1.2 0.3 2 0.3 1.3 0 2.2-1.1 2.2-2.2 0.4-1.6-0.8-3.2-2.3-4.3-1.1-0.8-2.3-1.2-3.6-1.5z"/>
		</g>
		<g id="Layer">
			<path id="Layer" class="s5" d="m355.6 279.3c-0.2 1.3-0.2 2.6-0.2 4 0.1 2.8 0.5 5.6 0.5 8.5 0.1 5.8-3 8.1-5.1 13.4-1.8 4.5-1.9 9.3-1.7 14q0 2 0.1 4c0.2 6.1 0.2 12.1-3.2 17.5-2.7 4.3-5.3 8.1-6.2 13.1-0.4 2.3-0.4 4.9-0.4 7.4 0 1.6 0 3.2-0.2 4.8q-0.2 1.6-0.8 3.2c-3.4 9-12.7 11.1-12.4 22.1 0.2 4.9 1 6.5-2.1 10.7-1.8 2.5-3.7 4.7-5.3 7.2-1.4 2.1-3.4 4.9-6.1 6-1 0.4-2.1 0.5-3.2 0.4q-0.5-0.1-0.9-0.2-0.2 0-0.5-0.1c-4.4-1.4-7.6-6.5-10.2-9.4-3.3-3.8-4.5-8-4-12.6 0.3-3.9 1.6-8.5 0.3-12.2-1.6-4.6-6.2-7.7-7.3-12.5-0.9-3.6 0.2-6.6 1.5-9.6 0.6-1.1 1.1-2.3 1.7-3.5 1.4-3.1 2.5-6.4 1.1-10.5-1.8-5.4-3.9-9.3-4.6-15.2-0.8-5.8 1.5-8.5 3.8-13.8q0-0.1 0.1-0.2 0.9-2.2 1.1-4.3c1.2-9.3-4.8-18.5-1-27.9 1.7-4.2 6-6.3 6.4-11.1q0.1-1.4 0-2.9c-0.1-1.8-0.3-3.5-0.6-5.4-0.6-3.9-1.4-8-1.2-11.9 0.5-9.6 9.1-12.6 9.6-21.3q0-0.9 0-1.8-0.1-1.5-0.3-3c-0.3-3.7-0.6-7.6 1.6-10.9 2.2-3.5 7.3-5 9.4-8.5 1.5-2.3 1-4.8 1.2-7.2q0.1-1.1 0.4-2.1 0.2-0.6 0.4-1c1.6-3.6 4.1-3.8 7.9-5.7 4.6-2.2 6.6-7.7 10.5-10.9 1.8-1.4 4.6-1.1 6.1 0.7 2.7 3.2 7.1 5.1 9.1 8.5 1.7 3-0.2 7.9 0.3 11.1q0.2 1 0.5 1.8 0.5 1.7 1.4 3.2c1.3 2.3 3.1 4.4 4.8 6.9 3.6 5.3 4.3 9.9 4 14.6-0.1 1.6-0.4 3.2-0.7 4.8-0.6 3.4-1.4 7-1.8 11-0.5 6.4 4.8 11.7 3.8 18.1-0.9 5.9-6.2 11-7.4 17.2q-0.1 0.7-0.2 1.5z"/>
			<path id="Layer" class="s4" d="m330.7 255q-2.4 17.9-4.6 35.8 14.8-5.7 29.5-11.5c-0.2 1.3-0.2 2.6-0.2 4q-14.8 5.9-29.8 11.5-2.8 22.8-5.4 45.7c10.2-6.2 19.8-13.5 28.9-21.3q0 2 0.1 4-4.5 3.8-9.2 7.4c-6.5 4.9-13.3 9.4-20.3 13.8q-1.9 17.1-3.7 34.3c7.1-4.4 13.9-9.6 20.3-14.8q1.6-1.3 3.1-2.7c0 1.6 0 3.2-0.2 4.8q-0.3 0.2-0.7 0.5c-7.2 6-15 11.1-22.9 16.2q-0.6 5-1.1 10c-0.7 7.5-1.5 15-2 22.5-0.7 8.7-0.9 17.5-0.3 26.3 0.1 1.1-0.4 2.1-1.6 2.4-1 0.1-2.3-0.6-2.4-1.7-0.6-8.9-0.4-17.9 0.2-26.8 0.6-9.4 1.7-18.9 2.7-28.3q0.2-1.9 0.4-3.8c-7.2-5.8-13.7-12.5-19.6-19.6q-1.9-2.3-3.7-4.7c0.6-1.1 1.1-2.3 1.7-3.5q2.2 2.9 4.5 5.8c5.4 6.4 11.3 12.3 17.5 17.8q1.8-16.8 3.7-33.6c-7-6.5-13.5-13.6-19.2-21.2q-3.2-4.2-6.1-8.6 0.9-2.1 1.1-4.2 3.7 5.5 7.8 10.8c5.2 6.7 10.9 13 16.9 19.1q2.7-23.4 5.6-46.8c-6.3-5.7-12.4-11.5-18.2-17.6q-3.4-3.6-6.7-7.4c-0.1-1.8-0.3-3.5-0.6-5.4q0.4 0.5 0.9 1 4.2 4.7 8.6 9.2c5.3 5.5 10.8 10.9 16.5 16q0.2-1.2 0.3-2.4 2-15.9 4.2-31.6-0.1-0.1-0.1-0.1-7.9-8.8-15.6-17.7-3.2-3.8-6.4-7.6 0-0.9 0-1.8-0.1-1.5-0.3-3 0.8 0.9 1.6 1.7 3.9 4.2 7.7 8.5 6.9 7.7 13.7 15.4 0.8-6.5 1.7-13c1-6.9 2.1-13.9 3.1-20.8q-0.1-0.1-0.3-0.3c-3.6-4.1-7.1-8.2-10.6-12.4q-2.4-2.8-4.7-5.7 0.1-1.1 0.4-2.1 0.2-0.6 0.4-1c2.2 2.2 4.3 4.4 6.4 6.7q4.5 5.2 9.1 10.4 0.9-5.9 1.9-11.9c0.7-4.1 1.7-8 2.6-12 0.2-0.7 1.2-0.4 1.2 0.2-0.2 2.4-0.1 4.7-0.4 7.1-0.2 2.3-0.5 4.7-0.8 7q-0.5 4.1-1 8.2 5.1-3.6 10.4-7 2.5-1.6 5-3.2 0.5 1.7 1.4 3.2-2.2 1.4-4.3 2.8-6.7 4.2-13.1 8.9-0.1 0.4-0.2 0.9c-1.1 9-2.3 18.1-3.5 27.2q-0.3 2.5-0.7 5.1c10-8.2 20.1-16 30.6-23.4-0.1 1.6-0.4 3.1-0.7 4.8-10.5 7.4-20.8 15.2-30.5 23.5z"/>
		</g>
	</g>
</svg>